<svg xmlns="http://www.w3.org/2000/svg" xmlns:xlink="http://www.w3.org/1999/xlink" version="1.1" x="0px" y="0px" viewBox="0 0 32 40" style="enable-background:new 0 0 32 32;" xml:space="preserve"><style type="text/css">
	.st0{display:none;}
	.st1{display:inline;}
</style><g><path d="M16,2C8.28,2,2,8.28,2,16c0,7.72,6.28,14,14,14s14-6.28,14-14C30,8.28,23.72,2,16,2z M16,26.97   C9.95,26.97,5.03,22.05,5.03,16C5.03,9.95,9.95,5.03,16,5.03S26.97,9.95,26.97,16C26.97,22.05,22.05,26.97,16,26.97z M16.38,12.07   c1.42,0,2.57-1.15,2.57-2.57c0-1.42-1.15-2.57-2.57-2.57c-1.42,0-2.57,1.15-2.57,2.57C13.81,10.92,14.96,12.07,16.38,12.07z    M18.88,17.32c0.43-1.84-0.97-3.61-2.86-3.61H13.8c-0.42,0-0.76,0.34-0.76,0.76c0,0.16,0.07,0.31,0.19,0.44   c0.37,0.4,0.57,0.93,0.44,1.47l-1.16,4.72c-0.43,1.84,0.97,3.61,2.86,3.61h2.22c0.42,0,0.76-0.34,0.76-0.76   c0-0.16-0.07-0.31-0.19-0.44c-0.37-0.4-0.57-0.93-0.44-1.47L18.88,17.32z"/></g><text x="0" y="47" fill="#000000" font-size="5px" font-weight="bold" font-family="'Helvetica Neue', Helvetica, Arial-Unicode, Arial, Sans-serif">Created by usamah abdul matin</text><text x="0" y="52" fill="#000000" font-size="5px" font-weight="bold" font-family="'Helvetica Neue', Helvetica, Arial-Unicode, Arial, Sans-serif">from the Noun Project</text></svg>