<svg xmlns="http://www.w3.org/2000/svg" version="1.1" x="0px" y="0px" viewBox="0 0 32 40" style="enable-background:new 0 0 32 32;" xml:space="preserve">
    <path d="M29.1,14.1L16.2,2.7c-1.1-1-3-1-4.1,0c-1.1,1-1.1,2.6,0,3.6L23,16l-10.9,9.6c-1.1,1-1.1,2.6,0,3.6c1.1,1,3,1,4.1,0   l12.9-11.4c0.6-0.5,0.9-1.2,0.9-1.9C30,15.3,29.7,14.6,29.1,14.1z"/>
    <path d="M14.3,16c0-0.7-0.3-1.4-0.9-1.9L7,8.4c-1.1-1-3-1-4.1,0c-1.1,1-1.1,2.6,0,3.6L7.3,16l-4.5,3.9c-1.1,1-1.2,2.6,0,3.6   c1.1,1,3,1,4.1,0l6.5-5.7C14,17.4,14.3,16.7,14.3,16z"/>
</svg>
