<svg xmlns="http://www.w3.org/2000/svg" viewBox="0 0 121.05 121.05" x="0px" y="0px">
        <polygon points="60 60.35 60.35 60 60.7 59.65 110.35 10 111.05 10.7 61.4 60.35 62.05 61 111.05 110 110.35 110.7 60 60.35"/>
        <path d="M110.35,120.7a10,10,0,0,1-7.07-2.93L52.93,67.42a10,10,0,0,1,0-14.14L103.28,2.93a10,10,0,0,1,14.14,0l.7.7a10,10,0,0,1,0,14.15L75.54,60.35l42.58,42.58a10,10,0,0,1,0,14.15l-.7.69A10,10,0,0,1,110.35,120.7Z"/>
        <polygon points="10 60.35 10.35 60 10.7 59.65 60.35 10 61.05 10.7 11.4 60.35 12.05 61 61.05 110 60.35 110.7 10 60.35"/>
        <path d="M60.35,120.7a10,10,0,0,1-7.07-2.93L2.93,67.42a10,10,0,0,1,0-14.14L53.28,2.93a10,10,0,0,1,14.14,0l.7.7a10,10,0,0,1,0,14.15L25.54,60.35l42.58,42.58a10,10,0,0,1,0,14.15l-.7.69A10,10,0,0,1,60.35,120.7Z"/>
</svg>
