<svg xmlns="http://www.w3.org/2000/svg" version="1.1" x="0px" y="0px" viewBox="0 0 32 18" xml:space="preserve">
    <path d="M10.708,1.705L9.296,0.293c-0.39-0.391-1.021-0.391-1.411,0L0.292,7.891c-0.175,0.175-0.26,0.401-0.277,0.631H0v0.937h0.011  c0.013,0.236,0.102,0.47,0.281,0.651l7.593,7.598c0.39,0.391,1.021,0.391,1.411,0l1.412-1.412c0.39-0.391,0.39-1.022,0-1.413  L4.829,8.999l5.879-5.882C11.098,2.728,11.098,2.096,10.708,1.705z"/>
    <path d="M31.985,8.521c-0.018-0.229-0.103-0.456-0.277-0.631l-7.593-7.598c-0.39-0.391-1.021-0.391-1.411,0l-1.412,1.412  c-0.39,0.391-0.39,1.022,0,1.412l5.879,5.882l-5.879,5.883c-0.39,0.391-0.39,1.022,0,1.413l1.412,1.412  c0.39,0.391,1.021,0.391,1.411,0l7.593-7.598c0.18-0.182,0.269-0.415,0.281-0.651H32V8.521H31.985z"/>
    <path d="M19,0h-2c-0.459,0-0.858,0.312-0.97,0.758l-4,16c-0.075,0.299-0.008,0.615,0.182,0.857C12.401,17.858,12.692,18,13,18h2  c0.459,0,0.858-0.312,0.97-0.758l4-16c0.075-0.299,0.008-0.615-0.182-0.857C19.599,0.142,19.308,0,19,0z"/>
</svg>
