<svg  xmlns="http://www.w3.org/2000/svg"  version="1.1" x="0px" y="0px" viewBox="0 0 100 100" xml:space="preserve">
    <path d="M45.5,78.8h8.9c2,0,3.7-1.6,3.7-3.7v-5.5c0-2-1.6-3.7-3.7-3.7h-8.9c-2,0-3.7,1.6-3.7,3.7v5.5     C41.9,77.2,43.5,78.8,45.5,78.8z"/>
    <path d="M22.6,78.8h8.9c2,0,3.7-1.6,3.7-3.7v-5.5c0-2-1.6-3.7-3.7-3.7h-8.9c-2,0-3.7,1.6-3.7,3.7v5.5     C18.9,77.2,20.5,78.8,22.6,78.8z"/>
    <path d="M68.5,78.8h8.9c2,0,3.7-1.6,3.7-3.7v-5.5c0-2-1.6-3.7-3.7-3.7h-8.9c-2,0-3.7,1.6-3.7,3.7v5.5     C64.8,77.2,66.5,78.8,68.5,78.8z"/>
    <path d="M45.5,58.8h8.9c2,0,3.7-1.6,3.7-3.7v-5.5c0-2-1.6-3.7-3.7-3.7h-8.9c-2,0-3.7,1.6-3.7,3.7v5.5     C41.9,57.1,43.5,58.8,45.5,58.8z"/>
    <path d="M22.6,58.8h8.9c2,0,3.7-1.6,3.7-3.7v-5.5c0-2-1.6-3.7-3.7-3.7h-8.9c-2,0-3.7,1.6-3.7,3.7v5.5     C18.9,57.1,20.5,58.8,22.6,58.8z"/>
    <path d="M68.5,58.8h8.9c2,0,3.7-1.6,3.7-3.7v-5.5c0-2-1.6-3.7-3.7-3.7h-8.9c-2,0-3.7,1.6-3.7,3.7v5.5     C64.8,57.1,66.5,58.8,68.5,58.8z"/>
    <path d="M85.6,13h-6.2v4c0,4.5-3.7,8.2-8.2,8.2c-4.5,0-8.2-3.7-8.2-8.2v-4H37v4c0,4.5-3.7,8.2-8.2,8.2c-4.5,0-8.2-3.7-8.2-8.2v-4     h-6.2C7.8,13,2.5,18.3,2.5,24.9v58.5c0,6.5,5.3,11.9,11.9,11.9h71.2c6.5,0,11.9-5.3,11.9-11.9V24.9C97.5,18.3,92.2,13,85.6,13z      M88.4,83.3c0,1.5-1.2,2.7-2.7,2.7H14.4c-1.5,0-2.7-1.2-2.7-2.7V38.7h76.7V83.3z"/>
    <path d="M28.8,21.6c2.5,0,4.6-2,4.6-4.6V9.4c0-2.5-2-4.6-4.6-4.6c-2.5,0-4.6,2-4.6,4.6V17C24.2,19.6,26.2,21.6,28.8,21.6z"/>
    <path d="M71.2,21.6c2.5,0,4.6-2,4.6-4.6V9.4c0-2.5-2-4.6-4.6-4.6c-2.5,0-4.6,2-4.6,4.6V17C66.7,19.6,68.7,21.6,71.2,21.6z"/>
</svg>
