<svg version="1.1" viewBox="200 0 300 550" xmlns="http://www.w3.org/2000/svg">
  <path d="m473.59 351.87v62.602c0 3.0938-2.5078 5.6016-5.6016 5.6016l-235.97-0.003907c-3.0938 0-5.6016-2.5078-5.6016-5.6016l0.003906-62.598c0-3.0938 2.5078-5.6016 5.6016-5.6016h235.97c3.0938 0 5.5977 2.5078 5.5977 5.6016zm-5.5977 97.57h-235.98c-3.0938 0-5.6016 2.5078-5.6016 5.6016v62.602c0 3.0938 2.5078 5.6016 5.6016 5.6016h235.97c3.0938 0 5.6016-2.5078 5.6016-5.6016v-62.605c0-3.0898-2.5039-5.5977-5.5977-5.5977zm-236.41-338.97 73.715-73.715h-22.727l-56.156 56.16v12.043c0 2.9375 2.2891 5.2812 5.168 5.5117zm92.879 0.085938 73.801-73.801h-22.723l-73.801 73.801zm-88.371-73.801-9.6758 9.6758v22.727l32.402-32.402zm41.891 73.801 73.801-73.801h-22.727l-73.801 73.801zm185.93 0 9.6758-9.6758v-22.727l-32.402 32.402zm4.5039-73.715-73.711 73.715h22.727l56.156-56.156v-12.043c0-2.9414-2.2891-5.2852-5.1719-5.5156zm-97.469 73.715 73.801-73.801h-22.727l-73.801 73.801zm92.969 206.34 9.6719-9.6719v-22.727l-32.398 32.398zm4.5039-73.711-73.711 73.715h22.727l56.156-56.156v-12.043c-0.003906-2.9453-2.293-5.2852-5.1719-5.5156zm-23.672-0.085938h-22.727l-73.801 73.797h22.727zm-213.16 73.711 73.715-73.711h-22.727l-56.156 56.156v12.043c0 2.9414 2.2891 5.2812 5.168 5.5117zm4.5039-73.711-9.6719 9.6719v22.727l32.398-32.398zm65.652 73.797h22.727l73.801-73.801h-22.723zm-46.484 0h22.727l73.801-73.801h-22.727zm46.484-103.17h22.723l73.801-73.801h-22.723zm-65.648-73.801-9.6758 9.6758v22.723l32.398-32.398zm-4.5039 73.715 73.715-73.715h-22.73l-56.156 56.156v12.047c0 2.9375 2.2891 5.2812 5.1719 5.5117zm232.32 0.085938 9.6758-9.6758v-22.727l-32.402 32.402zm-208.66 0h22.727l73.801-73.801h-22.727zm213.16-73.715-73.715 73.715h22.727l56.16-56.16v-12.039c0-2.9414-2.2891-5.2852-5.1719-5.5156zm-46.395-0.085937-73.801 73.801h22.727l73.801-73.801z"/>
</svg>
