<svg version="1.1" viewBox="200 0 300 550" xmlns="http://www.w3.org/2000/svg">
  <path d="m441.18 110.56 32.402-32.402v22.727l-9.6758 9.6758zm-70.238 0 73.801-73.801h-22.727l-73.801 73.801zm-134.86-73.801-9.6758 9.6758v22.727l32.402-32.402zm-4.5039 73.715 73.715-73.715h-22.727l-56.156 56.16v12.043c0 2.9375 2.2891 5.2812 5.168 5.5117zm236.83-73.629-73.715 73.715h22.727l56.16-56.156v-12.043c0-2.9414-2.2891-5.2852-5.1719-5.5156zm-190.43 73.715 73.801-73.801h-22.727l-73.801 73.801zm46.48 0 73.801-73.801h-22.723l-73.801 73.801zm139.45 206.34 9.6758-9.6758v-22.727l-32.402 32.402zm-162.17 0h22.723l73.801-73.797h-22.723zm120.28-73.797-73.801 73.797h22.727l73.801-73.801zm-190.43 73.711 73.715-73.715h-22.727l-56.16 56.16v12.043c0 2.9414 2.2891 5.2852 5.1719 5.5117zm236.83-73.625-73.715 73.715h22.727l56.16-56.164v-12.039c0-2.9414-2.2891-5.2852-5.1719-5.5117zm-213.16 73.711h22.727l73.801-73.801h-22.727zm-19.164-73.797-9.6758 9.6758v22.727l32.402-32.402zm19.164 176.97h22.727l73.801-73.801h-22.727zm213.16-73.715-73.711 73.715h22.727l56.156-56.156v-12.043c-0.003906-2.9414-2.293-5.2852-5.1719-5.5156zm-232.33-0.085938-9.6719 9.6719v22.727l32.398-32.398zm-4.5039 73.715 73.715-73.715h-22.727l-56.156 56.156v12.043c0 2.9414 2.2852 5.2852 5.168 5.5156zm213.16-73.715h-22.727l-73.801 73.801h22.727zm19.168 73.801 9.6719-9.6719v-22.727l-32.402 32.402zm-162.18 0h22.727l73.801-73.801h-22.723zm162.18 103.17 9.6758-9.6758v-22.727l-32.402 32.402zm-134.86-73.801-73.801 73.801h22.723l73.801-73.801zm46.48 0-73.801 73.801h22.727l73.801-73.801zm-139.45 0-9.6758 9.6758v22.727l32.402-32.402zm232.32 0.085938-73.715 73.715h22.727l56.16-56.16v-12.043c0-2.9414-2.2891-5.2852-5.1719-5.5117zm-46.398-0.085938-73.797 73.801h22.727l73.801-73.801zm-139.45 0-56.156 56.156v12.043c0 2.9414 2.2891 5.2852 5.1719 5.5117l73.715-73.715zm-50.988-235.8 73.715-73.715h-22.727l-56.156 56.156v12.043c0 2.9414 2.2852 5.2812 5.168 5.5156zm4.5078-73.715-9.6758 9.6758v22.727l32.402-32.402zm19.16 73.801h22.727l73.801-73.801h-22.727zm46.484 0h22.727l73.801-73.801h-22.723zm120.29-73.801-73.801 73.801h22.727l73.801-73.801zm41.891 73.801 9.6758-9.6758v-22.727l-32.402 32.402zm4.5039-73.715-73.711 73.715h22.727l56.156-56.156v-12.043c0-2.9414-2.2891-5.2852-5.1719-5.5156z"/>
</svg>
