<svg version="1.1" viewBox="200 0 300 550" xmlns="http://www.w3.org/2000/svg">
  <path d="m473.59 145.53v62.602c0 3.0938-2.5078 5.6016-5.6016 5.6016l-235.97-0.003906c-3.0938 0-5.6016-2.5078-5.6016-5.6016l0.003906-62.598c0-3.0938 2.5078-5.6016 5.6016-5.6016h235.97c3.0938 0 5.5977 2.5078 5.5977 5.6016zm-5.5977 97.566h-235.98c-3.0938 0-5.6016 2.5078-5.6016 5.6016v62.602c0 3.0938 2.5078 5.6016 5.6016 5.6016h235.97c3.0938 0 5.6016-2.5078 5.6016-5.6016v-62.602c0-3.0938-2.5039-5.6016-5.5977-5.6016zm0 103.17h-235.98c-3.0938 0-5.6016 2.5078-5.6016 5.6016v62.602c0 3.0938 2.5078 5.6016 5.6016 5.6016h235.97c3.0938 0 5.6016-2.5078 5.6016-5.6016v-62.602c0-3.0938-2.5039-5.6016-5.5977-5.6016zm0 103.17h-235.98c-3.0938 0-5.6016 2.5078-5.6016 5.6016v62.602c0 3.0938 2.5078 5.6016 5.6016 5.6016h235.97c3.0938 0 5.6016-2.5078 5.6016-5.6016v-62.605c0-3.0898-2.5039-5.5977-5.5977-5.5977zm-97.043-338.88 73.801-73.801h-22.727l-73.801 73.801zm-92.965 0 73.801-73.801h-22.727l-73.801 73.801zm46.484 0 73.797-73.801h-22.723l-73.801 73.801zm143.95-73.715-73.715 73.715h22.727l56.16-56.156v-12.043c0-2.9414-2.2891-5.2852-5.1719-5.5156zm-232.33-0.085938-9.6758 9.6758v22.727l32.398-32.398zm-4.5039 73.715 73.715-73.715h-22.727l-56.156 56.156v12.043c0 2.9414 2.2891 5.2852 5.168 5.5156zm232.33 0.085938 9.6758-9.6758-0.003906-22.727-32.402 32.402z"/>
</svg>
