<svg version="1.1" viewBox="200 0 300 550" xmlns="http://www.w3.org/2000/svg">
  <path d="m473.59 455.04v62.602c0 3.0938-2.5078 5.6016-5.6016 5.6016h-235.97c-3.0938 0-5.6016-2.5078-5.6016-5.6016l0.003906-62.602c0-3.0938 2.5078-5.6016 5.6016-5.6016h235.97c3.0938 0.003906 5.5977 2.5117 5.5977 5.6016zm-149.12-344.48 73.797-73.801h-22.723l-73.801 73.801zm46.48 0 73.801-73.801h-22.727l-73.801 73.801zm97.469-73.715-73.711 73.715h22.727l56.156-56.156v-12.043c0-2.9414-2.2891-5.2852-5.1719-5.5156zm-4.5 73.715 9.6758-9.6758-0.003906-22.727-32.402 32.402zm-185.93 0 73.801-73.801h-22.727l-73.801 73.801zm-46.398-0.085938 73.715-73.715h-22.727l-56.156 56.156v12.043c0 2.9414 2.2891 5.2852 5.168 5.5156zm4.5039-73.715-9.6758 9.6758v22.727l32.398-32.398zm-4.5039 280.05 73.715-73.711h-22.727l-56.156 56.152v12.047c0 2.9375 2.2891 5.2812 5.168 5.5117zm232.33 0.089844 9.6758-9.6758v-22.727l-32.406 32.402zm4.5-73.715-73.715 73.715h22.727l56.16-56.16v-12.043c0-2.9414-2.2891-5.2852-5.1719-5.5117zm-213.16 73.715h22.727l73.801-73.801h-22.727zm46.484 0h22.727l73.801-73.801h-22.723zm-65.645-73.801-9.6758 9.6758v22.723l32.398-32.398zm185.93 0-73.797 73.801h22.727l73.801-73.801zm-120.28 176.97h22.727l73.801-73.801h-22.723zm162.17 0 9.6758-9.6758v-22.727l-32.406 32.406zm-227.82-73.801-9.6758 9.6758v22.727l32.402-32.402zm232.33 0.085938-73.711 73.715h22.723l56.16-56.16v-12.039c0-2.9414-2.2891-5.2852-5.1719-5.5156zm-23.672-0.085938h-22.723l-73.797 73.801h22.727zm-189.49 73.801h22.727l73.801-73.801h-22.727zm-23.672-0.085937 73.715-73.715h-22.727l-56.156 56.156v12.043c0 2.9414 2.2891 5.2852 5.168 5.5156zm23.672-206.25h22.727l73.801-73.801h-22.727zm-23.672-0.085938 73.715-73.715h-22.727l-56.156 56.156v12.043c0 2.9414 2.2891 5.2852 5.168 5.5156zm232.33 0.085938 9.6758-9.6758v-22.727l-32.402 32.402zm-41.898-73.801-73.797 73.801h22.727l73.797-73.801zm-185.93 0-9.6758 9.6758v22.727l32.402-32.398zm232.33 0.085937-73.711 73.715h22.727l56.156-56.16v-12.043c0-2.9375-2.2891-5.2812-5.1719-5.5117zm-166.68 73.715h22.727l73.797-73.801h-22.723z"/>
</svg>
