<svg xmlns="http://www.w3.org/2000/svg" data-name="Layer 1" viewBox="0 0 100.01 125" x="0px" y="0px">
    <path d="M40.34,46.95A3.05,3.05,0,0,0,37.29,50V83.72a3.05,3.05,0,1,0,6.1,0V50A3.05,3.05,0,0,0,40.34,46.95Z"/>
    <path d="M59.67,30.09a3.05,3.05,0,0,0-3.05,3.05V83.72a3.05,3.05,0,1,0,6.1,0V33.14A3.05,3.05,0,0,0,59.67,30.09Z"/>
    <path d="M21,63.81A3.05,3.05,0,0,0,18,66.86V83.72a3.05,3.05,0,1,0,6.1,0V66.86A3.05,3.05,0,0,0,21,63.81Z"/>
    <path d="M79,13.23a3.05,3.05,0,0,0-3.05,3.05V83.72a3.05,3.05,0,1,0,6.1,0V16.28A3.05,3.05,0,0,0,79,13.23Z"/>
</svg>
