<svg version="1.1" viewBox="200 0 300 550" xmlns="http://www.w3.org/2000/svg">
  <path d="m473.59 145.53v62.602c0 3.0938-2.5078 5.6016-5.6016 5.6016l-235.97-0.003906c-3.0938 0-5.6016-2.5078-5.6016-5.6016l0.003906-62.598c0-3.0938 2.5078-5.6016 5.6016-5.6016h235.97c3.0938 0 5.5977 2.5078 5.5977 5.6016zm-5.5977-108.77h-235.98c-3.0938 0-5.6016 2.5078-5.6016 5.6016v62.602c0 3.0938 2.5078 5.6016 5.6016 5.6016h235.97c3.0938 0 5.6016-2.5078 5.6016-5.6016v-62.602c0-3.0938-2.5039-5.6016-5.5977-5.6016zm0 206.34h-235.98c-3.0938 0-5.6016 2.5078-5.6016 5.6016v62.602c0 3.0938 2.5078 5.6016 5.6016 5.6016h235.97c3.0938 0 5.6016-2.5078 5.6016-5.6016v-62.602c0-3.0938-2.5039-5.6016-5.5977-5.6016zm0 103.17h-235.98c-3.0938 0-5.6016 2.5078-5.6016 5.6016v62.602c0 3.0938 2.5078 5.6016 5.6016 5.6016h235.97c3.0938 0 5.6016-2.5078 5.6016-5.6016v-62.602c0-3.0938-2.5039-5.6016-5.5977-5.6016zm0 103.17h-235.98c-3.0938 0-5.6016 2.5078-5.6016 5.6016v62.602c0 3.0938 2.5078 5.6016 5.6016 5.6016h235.97c3.0938 0 5.6016-2.5078 5.6016-5.6016v-62.605c0-3.0898-2.5039-5.5977-5.5977-5.5977z"/>
</svg>
