<svg xmlns="http://www.w3.org/2000/svg" version="1.1" x="0px" y="0px" viewBox="0 0 90 25" enable-background="new 0 0 90 20" xml:space="preserve">
    <path d="M34.307,7.766l-4.548-0.732c0,0-1.166-2.653-1.92-3.956c-0.755-1.303-1.303,0-1.303,0l-2.035,3.956l-4.64,0.686  c-1.188,0.549-0.205,1.35-0.205,1.35l3.176,3.084l-0.778,4.527c-0.16,1.348,1.235,0.617,1.235,0.617l3.862-1.967l3.934,2.012  c1.349,0.617,1.097-0.754,1.097-0.754l-0.687-4.412l3.086-3.131C35.609,8.084,34.307,7.766,34.307,7.766z"/>
    <path d="M70.056,7.765l-4.548-0.732c0,0-1.166-2.652-1.92-3.955c-0.755-1.303-1.303,0-1.303,0L60.25,7.033l-4.64,0.686  c-1.188,0.549-0.205,1.35-0.205,1.35l3.176,3.084l-0.778,4.527c-0.16,1.348,1.235,0.617,1.235,0.617L62.9,15.33l3.934,2.012  c1.349,0.617,1.097-0.754,1.097-0.754l-0.687-4.412l3.086-3.131C71.358,8.083,70.056,7.765,70.056,7.765z"/>
    <path d="M52.181,7.766l-4.548-0.732c0,0-1.166-2.653-1.92-3.956c-0.755-1.303-1.303,0-1.303,0l-2.035,3.956l-4.64,0.686  c-1.188,0.549-0.205,1.35-0.205,1.35l3.176,3.084l-0.778,4.527c-0.16,1.348,1.235,0.617,1.235,0.617l3.862-1.967l3.934,2.012  c1.349,0.617,1.097-0.754,1.097-0.754l-0.687-4.412l3.086-3.131C53.483,8.084,52.181,7.766,52.181,7.766z"/>
    <path d="M16.432,7.765l-4.548-0.731c0,0-1.166-2.653-1.92-3.956c-0.754-1.303-1.303,0-1.303,0L6.625,7.034L1.986,7.719  C0.798,8.268,1.781,9.068,1.781,9.068l3.176,3.085L4.179,16.68c-0.16,1.349,1.235,0.617,1.235,0.617l3.863-1.966l3.933,2.012  c1.349,0.616,1.097-0.755,1.097-0.755l-0.687-4.412l3.086-3.131C17.734,8.083,16.432,7.765,16.432,7.765z M14.387,9.341  l-2.126,2.157l0.474,3.04c0,0,0.173,0.945-0.756,0.52l-2.71-1.386l-2.661,1.355c0,0-0.96,0.503-0.851-0.426l0.536-3.119L4.104,9.358  c0,0-0.677-0.551,0.143-0.93l3.195-0.471l1.402-2.725c0,0,0.378-0.898,0.898,0c0.52,0.897,1.324,2.725,1.324,2.725l3.132,0.503  C14.197,8.46,15.095,8.679,14.387,9.341z"/>
    <path d="M87.931,7.765l-4.548-0.731c0,0-1.166-2.653-1.92-3.956c-0.755-1.303-1.303,0-1.303,0l-2.035,3.956l-4.64,0.685  c-1.188,0.549-0.205,1.349-0.205,1.349l3.176,3.085l-0.778,4.526c-0.16,1.349,1.235,0.617,1.235,0.617l3.862-1.966l3.934,2.012  c1.349,0.616,1.097-0.755,1.097-0.755l-0.687-4.412l3.086-3.131C89.233,8.083,87.931,7.765,87.931,7.765z"/>
</svg>
