<svg xmlns="http://www.w3.org/2000/svg" viewBox="0 0 100 125" x="0px" y="0px"><defs><style>.cls-1{fill-rule:evenodd;}</style></defs><path class="cls-1" d="M63.6,12.176h-.218v-.219H63.6Zm11.251,2.84c.033-.129.579-.274.219-.437-.029.174-.114.013-.219,0s-.13.1-.218.109A.3.3,0,0,0,74.854,15.016Zm2.623,1.529c.074-.293-.226-.211-.328-.327C77.084,16.5,77.192,16.611,77.477,16.545Zm-9.941,1.966h.218v-.218h-.218Zm14.31,1.312c.353-.047.945.143.983-.219-.211-.116-.579-.075-.437-.547-.129.018-.31-.017-.328.111h.219C82.267,19.516,81.879,19.491,81.846,19.823Zm1.42.109v-.219c-.11,0-.13-.088-.219-.109-.026.156-.18.184-.218.328Zm2.84,3.058c.006-.067.017-.129.109-.109-.012-.133-.033-.259-.218-.218C86.014,22.791,85.978,22.972,86.106,22.99Zm.547.874h-.219v.219h.219Zm1.31,2.076c-.194.025-.547-.11-.437.218C87.775,26.189,87.936,26.132,87.963,25.94Zm2.076,5.571H89.6c-.095.225.284.49.328.218-.066-.006-.129-.016-.109-.109C89.905,31.6,90.036,31.617,90.039,31.511ZM68.3,37.628c-.276.139.208.623.327.328C68.422,37.944,68.552,37.594,68.3,37.628ZM59.344,46.8h.217c.17-.269-.37-.321-.328-.109C59.3,46.7,59.363,46.711,59.344,46.8Zm33.316.109c.156.026.184.18.328.219C93.083,46.907,92.705,46.641,92.66,46.913ZM59.452,48.88a.3.3,0,0,0,.328-.219C59.608,48.671,59.4,48.646,59.452,48.88Zm5.243.218c.247.132.481.316.656,0C65.275,49.012,64.741,48.855,64.695,49.1Zm27.856,0c-.088.661.5.072,0,0ZM63.822,51.064v-.655a.712.712,0,0,0-.547.109C63.236,50.922,63.547,50.975,63.822,51.064Zm-6.336,0c.034-.148.156-.208.11-.437C57.187,50.581,57.26,50.955,57.486,51.064Zm7.319-.327c-.014.2.109.255.328.218.024.085,0,.216.109.218C65.341,50.755,65.063,50.476,64.805,50.737Zm-.328.546c-.175.3.472.3.437.109A.614.614,0,0,1,64.477,51.283Zm-.218.328v.328C64.578,52.1,64.578,51.45,64.259,51.611Zm.655.109c.089-.055.172.264.219.219C65.217,51.853,65.1,51.347,64.914,51.72Zm-1.092.108c-.007.068-.017.13-.109.111v.217C63.981,52.326,64.034,51.786,63.822,51.828Zm-8.957,1.64V53.14C54.546,52.979,54.546,53.628,54.865,53.468Zm-3.606,2.839a.769.769,0,0,0,0,.656C51.788,57.01,51.576,56.327,51.259,56.307Zm9.068,1.749c.217.109.171.482.546.436C60.852,58.249,60.557,57.728,60.327,58.056ZM47.654,59.148h-.217v.218h.217Zm8.848.873h.328v-.327H56.5Zm32.771,2.513h.438A.234.234,0,1,0,89.273,62.534ZM43.5,62.971c.024-.086.091-.126.218-.109-.008-.32-.04-.617-.437-.546C43.287,62.605,43.225,62.958,43.5,62.971Zm-3.277.874a.3.3,0,0,0,0-.437c-.085.024-.216,0-.219.11C40.188,63.518,40.069,63.821,40.227,63.845Zm10.705,1.2h.219v-.219h-.219Zm37.905.328c.016-.13.195-.248,0-.328C88.821,65.175,88.642,65.294,88.837,65.375Zm-57.131.873v.218c.11,0,.13.089.218.11C31.914,66.4,31.939,66.2,31.706,66.248Zm1.2,0c-.17.01-.378-.015-.327.218A.3.3,0,0,0,32.907,66.248Zm-26.544.218v.219h.328C6.705,66.489,6.582,66.429,6.363,66.466Zm40.964.875c-.017.345,0,.659.218.764.012-.136.136-.152.219-.218s-.112-.129-.11-.11C47.643,67.714,47.576,67.268,47.327,67.341Zm-3.6.436H43.5V68h.218Zm-.109.437a.3.3,0,0,0,.218.328A.3.3,0,0,0,43.613,68.214Zm-34.956.875a.478.478,0,0,0-.437.217C8.469,69.338,8.631,69.281,8.657,69.089Zm-.328.546c.148.033.21.155.437.109C8.941,69.439,8.294,69.442,8.329,69.635Zm-.109.109c-.332.368.4.331,0,0Zm.328.764c-.162-.057-.276-.161-.437-.218-.191.223.081.214-.109.437C8.322,70.564,8.407,70.851,8.548,70.508Zm19.335.328h-.219v.219h.219Zm-19.007.328c-.279-.056-.424-.186-.437.218C8.688,71.412,8.849,71.356,8.876,71.164Zm12.343.437c.274.018.342-.168.437-.328a.525.525,0,0,1-.328-.109C21.294,71.311,21.173,71.372,21.219,71.6Zm11.8.327c.015-.129.193-.247,0-.327C33,71.73,32.822,71.848,33.018,71.928Zm-1.421,0c.368.333.331-.4,0,0Zm-7.755,0c.008.356.138.589.436.656a.762.762,0,0,0,0-.656ZM10.405,74.113H9.968v.546c.2.014.255-.108.219-.327C10.32,74.319,10.445,74.3,10.405,74.113Zm1.638,1.638c-.43-.394-.32.415,0,0Zm-.327.766c.067-.007.129-.017.109-.11H11.5v.328c.164-.019.4.039.438-.11C11.849,76.6,11.719,76.623,11.716,76.517Zm.874.436h-.547c-.107.436.327.329.219.765a.522.522,0,0,0,.546-.546C12.675,77.16,12.55,77.139,12.59,76.953Zm.109,1.312c.2-.015.255.108.219.327.194-.061.453-.056.546-.219C13.354,78.254,12.868,77.963,12.7,78.265Zm.874,1.091c.486-.085.215.586.655.547.035-.257.173-.41.11-.765A.48.48,0,0,0,13.573,79.356ZM78.9,79.029c-.021.313-.013.6.328.546C79.187,79.321,79.112,79.1,78.9,79.029Zm-2.184,2.294v.328C77.031,81.812,77.031,81.163,76.712,81.323Zm-60.736.546c.025.207-.123.241-.109.437A.228.228,0,1,0,15.976,81.869Zm56.147,3.058h.219V84.71h-.219ZM21.984,86.239H22.2V86.02h-.218Zm11.579,4.15c.006-.139.141-.151.11-.328C33.4,89.892,33.351,90.433,33.563,90.389Zm30.15.547c.131-.326.029-.372-.11-.656a1.581,1.581,0,0,0-.764.547C63,91,63.4,90.923,63.713,90.936Zm-1.2-.328c-.2.193.028.339.219.436C62.705,90.852,62.839,90.5,62.511,90.608Zm-3.824.874a.3.3,0,0,0,.328-.219A.3.3,0,0,0,58.687,91.482ZM48.42,92.574c-.031.286.039.47.327.437C48.7,92.8,48.708,92.541,48.42,92.574ZM92.442,51.939c.208.009-.068.425-.219.436a.923.923,0,0,1,.109.655c-.318-.026-.377.207-.546.328q-.03.359.329.328c-.212.392.041.4.108.765h-.437c-.036.171.27.035.329.108.017.023-.118.16-.111.219a.154.154,0,0,0,.111.109c0,.1-.185.2,0,.219-.166.228-.738-.057-.984-.109-.307.02-.465.19-.437.545.279-.011.382-.2.546-.327.28.3.469.517.983.327,0,.107-.133.086-.219.11,0,.218.3.139.219.437-.284.065-.393-.043-.327-.328-.249-.03-.411.027-.438.219.1.229.617.039.657.327.059.243-.209.157-.219.328-.163-.129-.488-.094-.438-.436a.512.512,0,0,1-.327.108c0,.332.55.107.546.437.263.045.238-.2.546-.109.066.2-.32.454,0,.547-.186.4-.91.254-1.2.546.009.281.468.114.327.545-.271.016-.53.021-.546-.217a1.359,1.359,0,0,1-.983.217c-.17-.387.371-.065.328-.327.016-.289-.542.128-.547.219-.008.145-.21.171-.217.327-.007.117-.1.066-.111.11-.051.22.315.448,0,.546.04.125.193.277.219.109.119.027.075.217.219.218-.105.271-.42-.15-.765,0v.219c.141.146.612.2.874.327-.017.309.309.274.437.437.172-.047.094-.343.437-.218.012.112-.471.221-.109.328-.035.364-.518-.329-.437.219.016.243.275-.143.546,0-.231.241-.675.271-.655.764-.4-.225-.491.049-.766.218.206.208.013.275,0,.547-.415.161-.021-.488-.436-.328-.331.032.385.459,0,.546a.3.3,0,0,0,.328.218c-.031.225-.292.219-.437.328-.095.5.12.68.437.765-.307.409.359.564.108.874-.123.021-.06.11,0,.109-.168.335-.291-.278-.545-.218v-.437c-.376.2.138.649-.437.546.047.289.119.663-.109.437-.159.048.01.1,0,.219a.519.519,0,0,1-.328.108c-.056-.089.073-.364,0-.436-.134-.134.029-.038,0-.219-.021-.129-.191-.144-.218-.218-.036-.1.249-.263,0-.437-.219.009,0,.239,0,.218-.066.311-.624.377-.11.437a.494.494,0,0,0-.109.655c.489-.161.335.32.765.219.046.208.234.274.218.546-.192.03-.545-.307-.656,0,.048.162.141-.043.328,0,0,.292.345.238.328.546-.321-.044-1.033-.027-.764-.328-.251.115-.66.07-.875.219.253.277.487.157.875.109-.085.131.107.19.108.219,0,.054-.089.157-.108.109.048.12.268.106.218.327-.351-.1-.15.361-.437.328.048.1.1.2.219.219.058.157-.427.266-.11.328-.181.219-.719.082-.765.437-.075-.216-.609.026-.655-.219-.336-.081-.21.3-.546.219-.031-.2.1-.224.109-.11.252.034.121-.315.328-.327-.123-.132-.312-.2-.219-.547a.732.732,0,0,0-.546,1.093c.095.231.242-.213.219.327.387.171.066-.371.327-.327.243-.06.156.208.328.219.01.206-.216.128-.328.217a1.568,1.568,0,0,0-.327.547c-.445-.27-.336.2-.656.327a.3.3,0,0,0,.328.219c-.073.457-.636.009-.765.219,0,.217.3.138.219.437.2.013.23-.134.436-.11-.062.1-.3.166-.108.219-.029.153-.714.011-.983.218,0,.107.133.085.218.11-.109.06-.048.212-.11.328-.027.051-.2.177-.218.217-.04.124.225.458-.109.438-.035.29.612-.1.437.328-.315.012-.715-.061-.874.108a.11.11,0,0,0,.218,0c.176-.03.189.1.328.11-.132.268-.509.292-.546.655-.315-.105-.608.117-.874.11s-.322-.151-.546-.11c-.316.058-.525.48-.983.328.387.328.869.145,1.311,0-.08.3.217.219.218.437.211-.044.01-.5.437-.328.14.43-.3.284-.437.438a1.884,1.884,0,0,0,.437.327c.078.405-.186.469-.109.873-.324.176-.254-.208-.437-.217-.137-.008-.223-.171-.219-.328-.126.017-.194-.024-.218-.11-.208.047-.275.235-.547.219.046-.263-.2-.238-.108-.547q.357-.029.327.328a.481.481,0,0,0,.437-.218c-.109-.179-.3-.089-.546-.219-.056-.029.013-.1-.11-.108-.1-.006-.183-.216-.218-.219-.105-.009-.118.311-.328.219v-.329c-.308-.09-.282.154-.545.11a.3.3,0,0,0,.327.219c.119.026.074.216.218.217.047.3-.407.1-.437.328.107.252.453.047.547.11.043.029.073.28.109.328.018.023.3.242.327.217,0,0,.047-.188.11-.109.187.234.049-.2.546-.108.018,0-.017.2,0,.217a4.086,4.086,0,0,1,.546.11v.546c-.309-.09-.282.154-.546.11-.041.185.086.2.219.218a1.018,1.018,0,0,1-.875.437c.021-.239-.089-.348-.327-.328.018-.128.2-.092.327-.109-.011-.207-.361-.076-.327-.328-.46.089-.086.761-.656.437-.1.35.284.227.328.437.014.2-.133.231-.109.437-.162-.057-.276-.162-.437-.219-.009-.154-.018-.309.11-.327-.018-.129-.2-.092-.328-.109a1.455,1.455,0,0,0-.11-.546c-.114-.183-.366-.211-.546-.328a.478.478,0,0,0,.219.436c-.236.368-.5-.143-.765-.108-.2.016-.067.37-.218.436.251.222.421.526.655.765.069.1-.106.091-.109.109-.022.111.11.093.109.11,0,.064-.1.267-.109.217.032.125.428.338,0,.328a.6.6,0,0,0,.437.438c-.225.266-.571-.268-.875,0,.061.2.437.526-.108.436-.1.225.283.491.327.219.256.028.063.48,0,.546-.466.1-.437-.866-.874-.437-.186-.071-.068-.251.11-.218,0-.16-.224-.05-.328-.11-.135-.076-.342-.5-.546-.655-.209.058-.017.178,0,.219s-.031.193,0,.218c.157.129-.058.051,0,.218.048.141.185.175.218.328.085.13-.107.191-.109.219,0,.058.094.152.109.109-.014.04-.217.242-.218.218.006.177.352.242.218.655-.1-.048-.2-.095-.218-.217-.211.043-.01.5-.437.328.137-.147.328-.216.109-.438-.3.026-.04.616-.437.546.063.229.271.312.218.656-.157.063-.281.031-.436.109-.211.1-.279.273-.437.437.044.241.184-.107.218-.109.171-.012.263.244.547.218.063.355-.075.508-.11.765-.162-.057-.275-.162-.437-.219-.157.16-.084.347.219.328-.2.523-.4-.156-.874,0a.513.513,0,0,1-.328.109v.437c-.227-.061-.231-.17-.11-.327a.5.5,0,0,1-.327.108c.208.405-.069.273-.328.438V84.6c-.232.095-.145-.154-.218-.217s-.245.033-.218-.11c-.16-.059-.566.128-.547-.109a.3.3,0,0,0-.218.328c-.279-.012-.217-.366-.219-.656-.478-.041-.561.313-.983.328-.028.32.247.335.219.655h-.438c.045.212.5.01.329.438-.345.053-.386-.2-.766-.11-.168.46.566.017.547.328.06.224-.209.261-.219.109-.209.012-.133.318-.218.437-.025.034-.183-.026-.218,0-.061.043-.049.274-.11.327a3.564,3.564,0,0,1-.437.219c-.018.127.024.195.109.218-.168.3-.427-.009-.655,0-.332.016-.683.266-1.092.219-.044.262.5-.06.328.327a.923.923,0,0,0-.656.111c-.262-.044.061.5-.328.327-.093-.349.172-.338.218-.546-.006-.247-.509.145-.436.219.144.144.006.056-.11.327.022.124.111.06.11,0,.187.14.429.226.436.546h-.546c-.018.273.168.342.328.437-.03.164-.278.07-.437.109-.032.008-.452.289-.546,0q-.168.16-.328.328c-.208-.047-.274-.235-.546-.218-.019.238.089.347.328.327-.045.247-.641-.057-.437.437-.453.125-.426-.229-.764-.219-.128.018-.093.2-.11.329-.345-.055-.041.541-.437.436v-.546h-.437c-.014.2.134.23.11.438-.423-.059-.534.194-.984.108a.623.623,0,0,0-.328-.655c-.322.072.2.34-.109.547a1.63,1.63,0,0,0-1.092,0c-.257.032-.2.378-.546.327a.481.481,0,0,1-.219.437c.071.11.252.112.219.327-.286-.03-.547-.037-.437.328-.018.33-.4-.666,0-.437-.192-.173-.582-.146-.875-.218-.033-.148-.272-.091-.436-.109-.02.238.09.347.328.327a2.473,2.473,0,0,0-.219.655c-.073-.094-.32-.063-.328-.218-.01-.21-.336-.109-.328-.437a.522.522,0,0,1-.655-.327c-.147.167-.08.129-.436.217-.14.036-.175.211-.328.219-.181.01-.25.088-.328.328a.614.614,0,0,0-.437-.109.3.3,0,0,0,.219.327c0,.087-.134.11-.219.11-.283,0-.182-.162-.436,0-.168.107-.4.013-.875,0-.11.07-.112.251-.327.218.095.16.163.347.436.328-.159.257-.584-.135-.655-.328-.308.091-.283-.154-.546-.109-.29-.035.1.612-.328.437.021-.089.109-.108.109-.219-.133-.158-.436-.145-.437-.437a2.462,2.462,0,0,1-.983-.218c-.2.171.112.38-.327.437a.713.713,0,0,1,.109.546c-.186.04-.206-.085-.219-.218-.4.035-.6.269-.983.328.054-.344-.238-.428,0-.656-.025-.158-.326-.038-.328-.219-.128.018-.091.2-.108.328-.128-.018-.2.024-.219.109-.146-.109-.407-.1-.437-.327-.478.094.058.568-.219.765-.427,0-.832-.4-.655-.656a.517.517,0,0,1-.328.109c.047.209.313.2.218.547a.631.631,0,0,1-.764.108.824.824,0,0,0,.219-.764c-.552-.07-.948.447-1.421.109a.978.978,0,0,0-.218.765c-.4-.2-.6.072-.983-.11-.04-.185.085-.2.218-.218-.206-.237-.554-.255-.327-.655-.248.079-.327.328-.438.546-.678.02-.86-.78-1.529-.437a.517.517,0,0,1,.11.328c-.126-.131-.277-.043-.11,0-.165.33-.479-.091-.764,0-.182-.621-.686-.6-1.093-.328a.669.669,0,0,1-.328-.109,2.731,2.731,0,0,1-.217-.218c-.112-.024-.2.2-.329.218-.245.027-.178-.1-.437-.218-.181.182-.285.441-.655.436-.06-.242.209-.156.219-.328-.354-.416-.35.445-.765.328a1.3,1.3,0,0,0-.109-.546c-.066-.107-.133-.034-.11,0-.033-.047-.133.012-.109-.109,0,0,.174-.029.109-.109,0-.3-.514-.26-.655-.11.034.149.274.091.437.11a.515.515,0,0,0-.11.328c-.308.089-.282-.155-.546-.11a.745.745,0,0,0-.327-.655c-.039-.03-.189.036-.218,0-.078-.094-.079-.185-.219-.219-.164-.04-.162.107-.219.11a.684.684,0,0,0-.546,0,.3.3,0,0,0-.218.327c-.16-.095-.347-.164-.328-.437-.1.067-.2.132-.218,0-.368.1-.013.244-.219.437-.354-.063-.508.075-.764.109-.132-.143-.043-.171,0-.327-.258,0-.322-.188-.656-.109,0-.293-.345-.238-.327-.547-.169-.041-.383.054-.547,0-.062-.02-.062-.183-.109-.219s-.189.037-.218,0c-.209-.255-.5-.028-.766,0-.22.025-.437-.283-.546.111-.131.032-.053-.18-.109-.219-.149-.106-.614.017-.655-.219-.208.046-.275.235-.546.219.1-.353-.356-.154-.437-.328-.244-.358.227-.482,0-.765-.125.021-.061.11,0,.11-.034.147-.274.09-.438.108-.13-.143-.041-.172,0-.327-.106-.176-.29-.252-.436-.109.071.111.251.113.218.328-.415-.218-.415.261-.873,0-.186-.041-.207.085-.219.218-.446.036-.933-.974-.328-.983.019-.237-.387-.05-.546-.109.055.547.149.536-.109.982-.351.1-.15-.359-.438-.327-.327-.072.105-.234,0-.437.144.039.173.192.328.218.163-.048-.042-.139,0-.327-.095-.379-.707-.24-.873-.547-.107-.4.532-.05.328-.545-.321.007-.407.249-.547.436-.014.2.134.231.109.437.127.018.2-.024.219-.109.2.08.016.2,0,.328-.079.334.111.4.109.655-.254.264-.292-.17-.546-.218-.489.278-.835-.064-1.311-.11a.713.713,0,0,1,.11-.546c.2.016.066.37.218.437.206-.012.076-.361.327-.327-.069-.385-.691-.171-.874-.328,0,0,.139-.283,0-.327a.759.759,0,0,0-.217.327c-.5-.2-1.058-.326-.983-1.093a2.8,2.8,0,0,1-1.421,0c-.046-.228.075-.289.109-.436-.042-.431-.72-.228-.874-.547-.2.16-.128.6-.545.547,0-.751.1-.783.108-1.421-.231-.08-.147.138-.219.219-.092.1-.449.21-.436.546-.127.026-.157-.194-.219-.218-.106-.042-.348.067-.436,0-.265-.2-.137-.614-.438-.766.028-.118.217-.073.219-.217-.152-.344-.539.15-.655-.11-.123-.157-.118-.266.109-.328,0-.217-.3-.138-.219-.436-.38.051-.675.019-.545-.438-.081.175-.535-.024-.438.328-.247-.384-.48.352-.655,0-.111.071-.113.252-.328.218.151-.138.067-.515.219-.655.373.045.138.3.546.109a.537.537,0,0,0-.546-.218c-.111.071-.113.251-.328.218-.11-.542.346-.348.109-.764h.328c.06-.242-.209-.156-.219-.327-.534-.1-.761.127-.983-.328-.3-.01-.219.182-.436,0-.037-.132.181-.054.218-.11.092-.143-.092-.517.328-.437-.023-.436-.5-.42-.765-.327,0-.292-.345-.237-.328-.547h-.328c.125-.32.065-.405-.218-.546-.045-.263.2-.237.11-.546,0-.331-.551-.105-.547-.437-.106,0-.085.134-.11.219-.224.095-.217-.556-.327-.219-.212-.152-.163-.565-.328-.764-.422.047-.388.119-.655-.11.016-.272.37-.032.437,0,.181-.11.119-.464.218-.655.309.09.284-.154.547-.109a.781.781,0,0,0-.328-.219,5,5,0,0,0-.109-.655c-.058-.136-.349-.181-.328-.547a.476.476,0,0,1-.437-.218c-.309.018-.455.2-.764.218.016-.306-.269-.315-.547-.327-.142-.332-.317-.63-.437-.983-.163-.128-.128-.454-.437-.438a.3.3,0,0,1,.219-.327c-.266-.385-.823.045-1.2-.328a.535.535,0,0,1,.546-.218c-.022-.576-.495-.133-.765-.328-.081-.336.3-.21.219-.546-.5-.094-.255.546-.655.546-.11-.374.34-.623-.219-.546a.3.3,0,0,1,.219-.327c-.071-.112-.252-.114-.219-.328.292.428.4-.432.547-.11.176-.151.268-.387.655-.327a1.87,1.87,0,0,1-.437.327.342.342,0,0,0,.218.219c.326.163.414,0,.765-.109-.034-.149-.273-.091-.437-.11.164-.127.267-.315.546-.327a4.73,4.73,0,0,0-.546-.437c.026-.3.616-.039.546-.438-.013-.241-.463-.046-.655-.108.011-.279.2-.382.328-.547-.021-.123-.11-.06-.11,0A1.873,1.873,0,0,1,9.64,69.2c-.111.071-.113.252-.328.219-.032.288.151.359.438.328-.035.431-.338-.081-.438.218-.343,0-.077-.247-.108-.327-.049-.124-.365-.147-.219-.438a2.425,2.425,0,0,0,.655-.218c.065-.392-.652,0-.546-.437H8.657c-.156.323-.084-.253.219-.109.191-.1.379-.2.328-.546-.047-.245-.539-.045-.765-.11.034.149.273.091.437.11-.106.259-.191.537-.656.437.265-.568-.252-.131-.437-.328.037-.508.169-.608,0-.983-.128.017-.092.2-.109.328-.309.09-.283-.155-.546-.11.142-.163.093-.2,0-.437-.141-.352.066-.274.109-.764.339.143.311-.03.765,0,.3-.232.237-.407.327-.655-.012-.388-.361.232-.327-.11-.034-.446.227-.059.437-.109a.451.451,0,0,0,.218-.656c-.324.149-.476-.064-.983,0,0-.433.661-.43.983-.546.1-.034.094-.108.109-.219.215.223.646.23.656.656.155-.009.309-.017.328.109.1.4-.577.2-.656.11-.051.233.156.208.328.218-.031.177.1.188.109.328.192-.027.249-.189.219-.437.308.09.282-.154.545-.109-.013.2.135.23.11.437a2.444,2.444,0,0,1,1.2,0c.105,0,.084-.135.109-.219.156.134.248.417.109.547.384-.009.274-.109.655,0,.037.009.2-.028.219,0a.758.758,0,0,1,0,.108c.073,0,.232-.216.222-.218.138.023.138.14.218.218.258.26.287.1.873.11-.076.477.569.232.657.546.263.045.237-.2.545-.109.026.118.219.074.219.218,0,.361.139-.244.546-.109-.021.088-.109.108-.109.219.254.122.292-.024.546.218.163.105.3-.107.327-.11.168-.013.561.34.547-.108.325.075.442.358.655.546a1.449,1.449,0,0,1,1.311.218c.128-.018.092-.2.11-.328.515-.044.5-.058,1.092-.109-.13.458.46.195.545.437.194-.1.32-.264.547-.328.351-.1.227.284.437.328.294.075.211-.226.328-.328.273-.018.342.168.437.328a.8.8,0,0,1,1.093.109c.333.08.32-.189.655-.109a.608.608,0,0,0-.11.437.809.809,0,0,0,.874-.437.3.3,0,0,1,.219.327c.155-.009.309-.017.327.11.218,0,.14-.3.437-.218.192-.1.241-.342.218-.656H26.9c-.041.37.189.466.328.656.328.109.192-.244.217-.437a.618.618,0,0,0,.438.109c.08.3-.217.219-.219.436.139-.147.576-.209.438.219a2.78,2.78,0,0,1,.873-.219c.01-.154.018-.309-.109-.327.022-.131.13-.151.219-.218.053-.041.18-.2.218-.219.1-.05.1.11.1.11.284-.056.49-.379.88-.329-.052.233.155.208.327.219-.018.127.024.195.109.219.288.032.358-.152.328-.438.5-.036.292.626.765.328.113.051.041.226.108.328,0,0,.23.223.219.219.079.035.259-.052.328,0,.1.076.058.308.218.327.247-.082.043-.612.11-.874.085-.036.112-.09.219-.109.027,0,.206.02.217,0s-.192-.253-.109-.327c.04-.037.171.026.219,0,.145-.084.259-.378.546-.328.022.055-.162.15-.109.218.121.154.233.024.437.11.093.038.194.322.436.327a.772.772,0,0,0,.219-.327c.313.015.2.455.218.764.407.116.173-.41.546-.328,0-.217-.3-.138-.218-.436.17-.025.51-.421.656-.11.08-.01.08-.426,0-.437a.3.3,0,0,1,.328-.218c.122-.1-.008-.245.217-.437.379-.014.635.094.547.546.684.1.406-.759.655-1.092.174.009.417-.053.438.109.254-.111.352-.376.327-.765.186.04.206-.085.218-.219.365,0,.29.439.546.547-.011.279-.2.382-.327.546.061.247.171-.133.327.109.107,0,.086-.133.11-.218.626-.008.3.94.983.874-.115.53-.56.079-.874.327,0,.327.284.372.328.656.4-.064.441-.053.983-.11-.018-.128-.2-.091-.328-.108-.078-.3.516.078.438-.219.05-.233-.157-.208-.328-.219.017-.127-.024-.194-.11-.218-.1-.123.1-.351.11-.327-.082-.232-.232-.081-.329-.438-.036-.138-.17-.023-.218-.109a2.959,2.959,0,0,1-.109-.437c-.014-.035-.087-.019-.109-.109-.017-.068.013-.149,0-.219a.713.713,0,0,1,.546.11c.095-.062.317-.136.328-.328.015-.288.553-.128.437-.656.119-.087.2.112.218.11.154-.018.276-.426.328-.437.082-.018.213.2.437.218a.75.75,0,0,0,.546-.218c.329.108.487.386.983.327.4-.312-.12-.9.546-.983-.121-.339-.07-.39.219-.218.066-.278-.1-.326-.113-.522a1.478,1.478,0,0,0,.2-.109c.407.061.857.255,1.12.085.03-.193-.515-.338-.219-.438.186-.04.206.086.219.219.263.045.236-.2.546-.109.157-.024.038-.327.218-.327-.048-.165-.14.045-.328,0-.025-.007-.011-.1-.109-.11s-.108-.122-.219-.109a.111.111,0,0,1,.219,0c.228-.064.353-.229.546-.328.2.06.454.057.547.218.216,0,.138-.3.436-.218a.508.508,0,0,1-.108-.327c-.072-.111-.252-.114-.219-.328.127.017.194-.024.219-.11.281.01.114.468.545.328.3.079-.078-.515.219-.437-.109-.267-.036-.232-.109-.655.365,0,.451.276.655.437.246-.314.364-.123.874-.219-.028-.227-.479-.03-.546-.218a.513.513,0,0,0,.109-.328c.353-.134.084.354.437.219.128-.018.092-.2.109-.329.39.048.382.493.546.765a.519.519,0,0,1,.328-.109c.284-.488-.643-.607-.109-.656a2.017,2.017,0,0,1,0-.873c0,.024.181-.052.109-.11-.214-.171.157-.09.109-.436.253.148.362.439.874.328a.3.3,0,0,1,0,.436c.163-.171.488-.122.437.219.2.013.231-.134.437-.109.02-.17-.247-.038-.327-.11-.2-.177.134-.433-.11-.546.041-.18.106.04.218,0,.17-.06.108-.39.438-.328,0-.257-.189-.321-.11-.655.252-.034.122.316.328.328.4.063.676-.3.437-.546-.194.1-.14.443-.546.328.221-.293.1-.416.218-.657.416.089.336-.319.656-.327-.024-.352.193-.462.108-.873.133.032.054-.179.111-.219.028-.021.2.028.217,0,.045-.086-.035-.237,0-.328.24.235.235-.028.219-.327.345-.054.386.2.765.108.131.144.042.173,0,.328.326,0,.371-.283.655-.328-.015-.312-.455-.2-.765-.218a.517.517,0,0,0,.11-.328c.155.01.309.018.328-.109.313.153.554-.3.655,0,.244.066.107-.316.328-.327.2-.011-.212-.494.327-.438-.139-.283-.239-.329-.108-.655.359,0,.543-.185.983-.109.286.033.085-.424.436-.328.019-.148-.555-.218-.218-.327-.1-.27-.484-.246-.437-.656-.018-.128-.2-.092-.328-.109.008-.258.266-.3.437-.437.069-.053.1.012.11-.11.005-.1.13-.084.218-.109.052-.081.16-.146.218-.218a.59.59,0,0,0,.219-.546.48.48,0,0,0,.436-.219c.237-.018.05.388.11.547.125-.132.276-.043.109,0,.034.148.274.089.438.109.263-.045.236.2.545.109.443-.111-.075-.5.327-.656-.163-.164-.194-.459-.436-.546-.018-.127.024-.194.109-.218-.153-.27-.377-.193-.656-.11.027.192.189.249.438.219-.028.373-.234.567-.656.546-.02.093.043.1.11.109-.039.154-.192.01-.219-.109a.781.781,0,0,0,.219-.327c-.068-.1-.133-.2,0-.219a.886.886,0,0,1-.328-.655c.4-.072.491-.323.764,0,.261-.213.423-.525.766-.655-.093-.163-.352-.158-.547-.219.163-.087.492-.892-.109-.764.1-.192.244-.422.437-.219.244.065.107-.317.327-.328.189-.01.083-.25.109-.546a.536.536,0,0,0,.547-.219c-.025-.139-.326-.143-.328,0-.33-.133.058-.436.219-.436-.017-.245-.276.141-.547,0-.123-.487.336-.393.547-.547-.22-.223.048-.214.109-.436.135-.354-.354-.084-.218-.438H61.2c-.294-.284.134-.33.109-.655.243-.06.156.208.328.218.369-.045-.291-.423.219-.327-.006-.267-.306-.224-.438-.328-.065-.053,0-.309-.218-.218.03-.589.684-.555.874-.983.02-.238-.089-.349-.328-.328.09-.309-.153-.284-.109-.547a.794.794,0,0,1,.219.328c.341.034-.278-.316.108-.328-.212-.245-.094-.821,0-1.092a.516.516,0,0,0,.328.109c.158-.134.166-.416.328-.546,0-.107-.133-.084-.218-.109.151-.141.108-.474.109-.765a.483.483,0,0,0-.437-.219c.056-.272,0-.658.328-.655-.028-.138.035-.3,0-.437.017.067-.149-.244-.11-.218-.024-.016-.324.02-.328,0-.032-.18.3-.032.328-.109.069-.215-.124-.587,0-.874.041-.093.27-.137.328-.219s-.034-.234.11-.219c-.085-.242-.063-.592-.328-.655-.059-.157.425-.266.109-.327,0-.106.133-.085.219-.11.1-.029-.373-.768-.11-.983.129-.105.038-.077-.109-.109.161-.258.23-.2.109-.546a.519.519,0,0,1,.327-.11c.072-.177-.28-.188-.327-.327-.037-.108.343-.366,0-.437-.01-.255.522-.351.438-.437-.235-.234.143.089.108-.328H63.6c.051-.233-.156-.208-.328-.219.079-.333-.111-.4-.109-.655a.923.923,0,0,1-.655-.109v-.436c.084-.047.211.219.219.217.125-.016.136-.258.217-.327.139-.117.383-.05.547-.219.085-.174-.314-.172-.328-.218-.037-.126.34-.144.328-.437-.049-.159-.1.011-.219,0-.088-.02-.108-.109-.217-.109-.028-.247.179-.334.217-.546s-.149-.4,0-.547c-.176-.151-.136-.52-.545-.436.04-.433-.256-.669.109-.875-.245-.192-.219-.654-.437-.873.047-.3.343-.006.218.218.2-.016.068-.37.219-.437-.133-.158-.417-.166-.547-.328,0-.258.158-.254.11-.655-.008-.069-.105-.252-.11-.218.017-.138.183-.137.219-.219s-.166-.225,0-.327a.551.551,0,0,1-.219-.656c.186-.04.206.085.219.218.151-.176.52-.135.436-.545.218,0,.14.3.438.218.2.1.067-.626.218-.218.307-.095-.2-.238-.218-.328-.016-.072.17-.19.109-.328-.1.1-.76.17-.436.328-.106.168-.637-.158-.875-.219.212-.668-.157-.693-.327-1.2a.713.713,0,0,0,.546-.109c-.507-.408.158-.73.109-1.312.217-.181.139.01.436,0,.112-.367-.339-.17-.545-.218q.115-.662-.546-.546A1.19,1.19,0,0,1,62.292,16c-.206-.217-.383-.186-.655-.109.087-.419.285-1.11-.437-.983-.024-.1.031-.228,0-.328-.039-.129-.177-.029-.218-.109s.091-.137.109-.109c-.071-.117-.2-.169-.328-.328v-.655a.512.512,0,0,1,.328-.11c-.025-.1.03-.227,0-.328-.009-.027-.107-.157-.109-.109.006-.137.187-.141.218-.219.071-.177-.205-.317,0-.436.127.018.194-.024.218-.109.128.017.093.2.11.327.164.007.045-.23.109-.327.023-.035.191.032.219,0,.074-.092,0-.279.218-.219v.328a.925.925,0,0,1,.656-.109c-.17.309.205.144.436.218.068.021.093.344.437.219.342,0,.082-.265.11-.328.037-.089.3-.109.218-.328.133-.016.149.18.218.219a4.136,4.136,0,0,0,.436.11c.058-.013.13-.219.11-.22.249.012.165.334.547.11.061.223.329.214.109.437.383.247.359-.231.655,0-.226-.4.121-.419.328-.656.556.419-.312.7-.328,1.2.087.127.345-.068.547.218.291-.109.36-.441.546-.656.059-.162-.3-.046-.328-.108-.046-.1.179-.082.219-.11.172-.119.1-.312.218-.437.092.1.7.234.765,0,.237-.019.049.388.109.547.217,0,.139-.3.437-.219a2.46,2.46,0,0,0,.218.655h.328c.106,0,.085-.133.11-.217.154.008.309.017.327-.111.08.089.257.127.328.219.018.025.09.317.109.328.1.06.342-.07.437,0-.064-.048-.12.483.109.109a1.442,1.442,0,0,1,.219.765c.219.037.342-.022.328-.219.263-.044.237.2.545.11a.394.394,0,0,0,.329.546c.216-.076.29-.291.327-.546.21.046.394-.075.218-.11.072-.327.234.105.437,0,0,.291-.3.279-.437.438.159.172.245-.012.656,0,.2-.16.128-.6.546-.546-.018.126.024.193.11.218.13.213-.2.17-.219.218-.043.142.174.221.219.437.113.039.174-.21.218-.218.182-.034.284.466.437.109.234.164-.078.267.109.546a.766.766,0,0,0,.655,0c.039.471-.271.421-.546.327v.328c.32.029.336-.246.656-.218-.018.337.257.617,0,.873.289-.037.369-.286.437-.545.245.046,0,.579.218.656.453.124.426-.231.765-.219a1.41,1.41,0,0,1-.328.874c-.452-.126-.426.229-.765.218-.073.423,0,.389-.109.656.1.121.2.033.546.108.014.2-.133.231-.109.437.308.091.283-.153.547-.109.11-.07.112-.251.327-.218-.089-.236.06-.794-.109-1.2a.3.3,0,0,0,.327-.219c.406.219.687-.11,1.093.109-.1.191-.2.38-.547.328.084.258.215.755,0,.983.1.191.383.2.547.327-.145.833.8.674,1.311.546-.038-.253-.071-.511-.437-.436.081-.446-.352-.376-.219-.874.192.094.38.407.328-.109.356.045.282.52.437.764a4.381,4.381,0,0,0,1.092,0c-.052.339.335.452.219,0,.106,0,.084.134.109.219-.019.237.388.05.546.109-.03.286-.037.547.328.438.183.517-.628.6-.547.108h-.546c-.158.133-.146.437-.437.437.021.088.11.109.109.219.234.051.208-.156.219-.328.341-.05.35.234.328.546-.144.111-.4.107-.547.219-.013.2.135.23.11.436.018.128.2.092.328.11-.068.351.393.15.109.437.308-.02.136-.519.546-.437.046.228-.075.289-.109.437a.713.713,0,0,1,.546-.11c-.069-.27-.026-.426-.437-.545.027-.172.283-.061.437-.11s.246-.289.437-.218c.033.222.219.29.328.436.194.066.453-.32.546,0a1.558,1.558,0,0,1,.764-.327c-.009.155-.018.309.11.327-.093.321-.275-.141-.546,0-.117.08-.013.329-.219.547.088.448.45-.057.655.218a1.1,1.1,0,0,0,.11.874c.4-.065.633-.179.873.11-.038.143-.192.171-.218.327.026.323.407.15.546,0,.227.028.03.48.219.546.192-.063.641.132.655-.109.268.012.023.361-.109.328-.093-.02-.1.043-.109.109-.486-.124-.528,0-1.2,0-.11.329.243.193.437.218.066.086-.307.148-.327.11.134.264.381.1.655.218.029.013-.028.2,0,.218.062.04.289-.254.327.11.111-.071.113-.251.328-.218-.121.422.386.388.11.655.605-.126-.463-.862.328-.874.044.263-.2.237-.111.546.107,0,.086-.133.111-.219.087.077.3.171.327,0,.29-.034-.1.613.328.438-.038.362-.63.171-.983.218a1.853,1.853,0,0,0-.328.437c.243-.047.592-.251.656.109.3.078-.078-.515.217-.436.281-.006.134.08.11.217,0,.107.133.086.219.11-.009.155-.018.309.109.328.028.32-.247.336-.219.655.106.2.122-.1.328.109.016.017.784-.108.874,0,.12.147.12.059.437,0-.018.127.024.2.109.219-.022.147-.453.2,0,.219-.117.1-.034.4-.328.327.2.35.72.373.983.656-.2.192.149.338-.219.436.071.111.252.113.219.328-.484.084-.439-.361-.655-.546-.479.114-.358-.369-.765-.327a.685.685,0,0,0-.218-.874c-.19.1-.3.4,0,.436-.164.361-.267-.227-.546-.109a.775.775,0,0,0-.219.328c.177.224.526.275.765.436.01.3-.183.221,0,.438.208-.047.274-.236.546-.219.018.148-.556.219-.218.328-.027.118-.217.074-.219.218-.334.079-.4-.111-.655-.109.033.331.421.307.436.656a.826.826,0,0,0,.765-.219c.053-.344-.335-.247-.218-.655.432-.142.223.359.655.218-.293.543.477.591.874.765,0,.165-.215.21-.328.327-.071.075-.135.277-.219.328-.162.1-.425,0-.545.219.338.4.417-.376.873-.219a1.939,1.939,0,0,0-.545.983c.017.128.2.093.328.11.033.256.172.409.108.764.263.045.238-.2.547-.109-.107.4.531.05.328.547-.2.072-.258-.066-.328-.11-.314-.2-.177-.2-.655,0-.033.207.245.128.327.218.117.13-.009.447.437.328v.437a.608.608,0,0,1,.437-.109c-.143.431.4.264.109.546.263.044.237-.2.546-.11-.033.289.228.282.437.329,0,.33-.549.1-.546.437-.018.236.388.049.546.108-.034.256-.233.472.109.547a.3.3,0,0,1-.328.218c-.017.259.285.051.438.219.027.029-.032.2,0,.218.083.046.239-.037.327,0-.183.618-.788-.318-1.092.11a1.367,1.367,0,0,0-1.747-.437.516.516,0,0,1-.111-.328c-.158.06-.563-.128-.545.109-.018.237.387.049.545.109.183.218-.009.139,0,.437a1.648,1.648,0,0,1,1.094,0c.05.209-.337.47.108.438-.086.383-.382.126-.546,0a.7.7,0,0,0-.545.108c.046.245.537.045.764.109-.094.291.2.2.219.438.011.2.232.074.436.218.062.043.008.315.219.218.128-.017.092-.2.109-.327.127.018.194-.024.218-.109.231.1.323.332.655.328.014.2-.133.23-.108.436.067.1.131.2,0,.219a.475.475,0,0,0,.436.218c.012.339-.344.312-.217.765-.2-.014-.232.134-.438.11.142.144.068.328-.109.436.14.188.226.429.547.437-.016.239-.276.234-.547.218a4.842,4.842,0,0,0,.436.547c-.03.253-.291.251-.436.109.045.515.915-.281.874.437-.127-.018-.194.024-.219.109-.249.03-.411-.027-.437-.219a.3.3,0,0,0-.218.328c-.019.311.715-.132.547.328a.933.933,0,0,0-.657.109c.063.1.305.165.11.219.02.088.109.108.109.218h.546c-.219.29-.915.1-.983.546-.162-.057-.275-.162-.437-.219-.023.352.39.267.546.438.344.053.248-.335.655-.219-.044.374-.294.139-.108.547-.262-.181-.829.061-1.2.109a.3.3,0,0,0,.328.219c-.1.191-.383.2-.547.327a.784.784,0,0,0,.328.219c-.107.427.241.633,0,.874a.3.3,0,0,0,.328.217c-.017.128.023.2.109.219v.437c.283-.289.406-.1.764-.218-.156.326.09.371-.108.656.348.064.338-.206.546,0-.021.416-.61.264-.656.655.1.377.439-.028.765.218.052.214-.5.352-.547.109-.143.039-.171.193-.327.219-.04.13.187.054.219.109.1.177-.24.268,0,.327.039.011.193-.026.219,0,.041.047-.216.208,0,.219s.53.082.545.437c-.309.018-.455.2-.764.219a.3.3,0,0,0-.219-.328.3.3,0,0,0-.219.328c.093.235.48.176.657.327.051.343-.137.446-.329.547.072.111.252.113.218.327-.271.012-.337.205-.546,0,.148.2-.085.677.11.765-.018.128-.2.092-.328.109-.046.228.075.29.109.437a.551.551,0,0,0,.328-.328c.107,0,.086.134.109.219.156.209.416.314.437.655C92.35,52.065,92.418,52.023,92.442,51.939ZM89.711,33.477c.066.007.13.016.109.11h.219C90.209,33.317,89.668,33.265,89.711,33.477Zm-.874-3.823c-.031.249.027.411.219.437.011-.207.361-.076.328-.328A.717.717,0,0,0,88.837,29.654ZM62.183,14.579c-.172-.01-.085-.279-.327-.218C61.76,14.586,62.138,14.851,62.183,14.579Zm1.311.109c-.387.191-.268-.072-.655-.109-.11.145-.1.407-.328.437-.223-.094-.6.173-.328.219.123-.288.13.441.547.218.188-.066-.009-.519.217-.546C63.154,14.858,63.606,15.055,63.494,14.688ZM11.716,74.768a.52.52,0,0,0-.328.11V75.1a.514.514,0,0,1,.328.11Zm1.092-.982c-.342.051-.308-.276-.437-.437h-.546c.171.345-.06.479-.109.873h.219c0,.067.016.129.108.11-.014-.2.109-.256.328-.219.172.047.093.343.437.219C12.873,73.983,12.6,73.994,12.808,73.786Zm67.617,2.4c.248,0,.7-.554.656.109.255-.037.471-.112.546-.328-.3-.032-.782-.447-1.092-.109C80.906,75.977,80.231,75.9,80.425,76.189Zm9.067-15.731c.013.134.033.259.219.219-.17.269.371.321.328.11C89.757,60.777,89.924,60.318,89.492,60.458Zm1.421-3.495a.3.3,0,0,0,.327-.219C91.069,56.755,90.861,56.73,90.913,56.963Zm-.219-8.849c.192-.029.545.308.655,0C91.158,48.145,90.8,47.807,90.694,48.114ZM90.148,45.6c.206-.024.241.124.437.109v-.328C90.336,45.353,90.174,45.41,90.148,45.6Zm-.437,1.53c.29,0,.624-.042.764.109A.388.388,0,0,0,89.711,47.132Zm.983-6.664a.221.221,0,0,1,.109-.218c.065-.053-.105-.144-.109-.11.012-.129.2-.247,0-.327a.739.739,0,0,1-.546.437c.018,0-.318-.246-.328,0,.133.012.259.032.219.218Zm-.109.219c.068.259.146.508.437.546C91.261,40.981,90.989,40.624,90.585,40.687Zm.764,1.092c-.272-.21-.449.167-.655-.109.172-.011.379.014.328-.219-.274-.018-.342.168-.437.328a.708.708,0,0,0,.546.109c-.115.277.23.623.327.328C91.3,42.2,91.359,41.952,91.349,41.779ZM90.8,37.956c.017-.119.1-.084.219-.109.633-.134.072.009-.109-.219C90.843,37.541,90.472,38.018,90.8,37.956Zm-.764.983c.145-.11.406-.1.436-.328-.343.126-.265-.171-.436-.218-.107.111-.216.221-.328.327-.164-.018-.4.04-.438-.109.171.009.077-.317,0-.109,0,.145-.191.1-.217.218.2-.016-.026.173,0,.219.086.154.313,0,.655.11-.1.336.278.184.437.217.005,0,.045.09.109.11.345.105.607-.077.546-.327C90.415,38.956,90.148,39.364,90.039,38.939Zm-1.093-.874c.281.039.813.063.546.328.185-.105.4-.016.547-.109s.1-.549.436-.437c.026-.572-.67-.423-1.2-.438C89.177,37.64,88.941,37.733,88.946,38.065Zm-.109,15.293c.348.094.415-.095.547-.218.216.177.276-.006.436-.11.115-.074.258-.1.328-.218a3.9,3.9,0,0,1-1.092-.109.508.508,0,0,0,.109.327C89.153,53.237,88.8,53.107,88.837,53.358Zm1.092.655c.061-.068.444-.329.11-.437.058.486-.88.317-.547,0-.482-.064-.377.59.109.437-.052.224.146.233.219.329.057.073.093.418.328.327C90.446,54.373,89.865,54.4,89.929,54.013ZM87.308,30.637c-.115.049-.321-.043-.328.109.2.238.893-.019,1.092.218-.034-.29.612.1.437-.327.041-.3-.406-.084-.655-.109-.136-.014-.156-.141-.328-.11C87.5,30.423,87.349,30.619,87.308,30.637Zm.764,6.117a.611.611,0,0,0-.436.109c-.143.338.309.62.436.328C87.791,37.165,88.223,37,88.072,36.754Zm-.436-2.731c-.206-.1-.507-.583-.656-.109.133.012.258.033.219.219C87.362,34.114,87.6,34.172,87.636,34.023Zm-.547,26.108c.55-.2,1.019.139,1.311-.218a5.594,5.594,0,0,0-1.092-.219C87.306,59.911,87.01,59.833,87.089,60.131Zm1.093.656c.036.254.112.47.327.545C88.473,61.077,88.4,60.862,88.182,60.787Zm.218-28.73c-.168.134-.5.006-.656.109-.055.037.023.254-.108.219-.094-.231-.7.128-.437.219.006-.067.016-.13.109-.11.344-.054.386.2.764.11C88.072,32.312,88.417,32.365,88.4,32.057Zm-1.53-2.731c.3-.079.22.218.438.219a.478.478,0,0,0-.219-.437C87.088,29.252,86.9,29.208,86.87,29.326Zm-.436.547a.535.535,0,0,0,.546-.219C86.823,29.487,86.411,29.547,86.434,29.873Zm-.328-2.4c.192-.062.642.132.655-.109h-.327C86.305,27.376,86.124,27.341,86.106,27.469Zm-1.093-2.731c-.031.215.148.217.219.328-.032.067-.272.42,0,.436C85.312,25.249,85.509,24.686,85.013,24.738Zm-.873,1.639c-.042.48.7.1.655.109.239-.06.372-.054.437-.219C84.733,26.39,84.469,26.249,84.14,26.377Zm-2.185-2.841c-.014-.273-.209-.341.109-.437-.115.384.369.091.437,0a.3.3,0,0,1-.218-.328c.159-.059.565.129.546-.108a.923.923,0,0,0-.655-.109c.141-.146.143-.407-.11-.438.053.345-.2.386-.109.765C81.682,22.857,81.349,23.66,81.955,23.536ZM78.35,22.99h.437C78.81,22.633,78.275,22.559,78.35,22.99Zm-6.008-7.974A.534.534,0,0,0,71.8,14.8C71.6,15.334,72.392,15.561,72.342,15.016Zm-4.369-2.185c.084.084.591-.032.218-.219C68.246,12.7,67.927,12.786,67.973,12.831Zm-1.2,18.789c0,.2.084.231.219.109-.008.372-.034.763.218.875C67.213,32.038,67.486,31.608,66.771,31.62Zm.219,3.168a.513.513,0,0,1,.328.109C67.369,34.557,67.023,34.487,66.99,34.788Zm-.437-.328c.024.207-.123.241-.109.437.162-.019.4.039.436-.109-.186-.045.023-.141,0-.328Zm-.328-1.638c-.031.249.026.41.219.437-.08-.3.217-.22.218-.437ZM65.9,28.889c.1.038.286-.076.109-.109-.268-.052-.434-.764-.655-.219C65.764,28.41,65.759,28.84,65.9,28.889Zm.219,2.622c-.03-.013,0-.171-.11-.109-.063.478.557.261.438.109C66.41,31.468,66.169,31.533,66.116,31.511Zm.109-4.588c-.18,0-.061-.3-.219-.328.079.3-.217.219-.217.437C65.952,27.014,66.191,27.071,66.225,26.923ZM65.9,32.276c.35.095.341-.169.437-.329-.147-.033-.209-.154-.437-.108Zm0-12.563c.258.077.693.251.656-.218C66.361,19.594,66.007,19.532,65.9,19.713Zm-.655,2.841c.01.178-.182.474,0,.217a.281.281,0,0,0-.109-.545C65.01,22.383,65.015,22.492,65.242,22.554Zm-.765.109c.129.032.413.439.546.108C64.884,22.75,64.488,22.454,64.477,22.663ZM64.04,25.94c.282.161.486.169.328.327-.132.131.542.072.437.328-.274-.013-.342-.208-.437.109.192.027.249.189.219.438.23.124.474-.132.655-.219.051-.025.174.035.219,0,.2-.162.02-.417.217-.219.031.031.3-.325.219-.437-.311-.269-.74.455-.983-.109.194-.1.319-.264.547-.328a.3.3,0,0,0,.328.219c.111-.143.106-.4.217-.547-.289,0-.642.061-.655-.217.294-.158-.138-.693-.218-.438.066.006.129.017.109.11-.124.2-.129.526-.547.437-.052.451.336-.147.219.436C64.652,25.9,64.122,25.694,64.04,25.94Zm.655,10.923c-.187.043-.279-.161-.327,0,.183-.008-.234.774.219.765C64.877,37.383,64.432,37.08,64.695,36.863Zm-.873-4.916a.514.514,0,0,1,.327.11V31.62C63.856,31.545,63.939,31.846,63.822,31.947Zm.437-10.377c-.389.17-.066-.37-.328-.328C63.655,21.381,64.139,21.866,64.259,21.57ZM63.713,33.7c.378-.086.461.122.655.219-.025-.206.123-.241.109-.437-.494.139.195-.553-.218-.655-.11.337-.1-.315-.328-.218,0,.143-.192.1-.218.218C64,32.971,63.737,33.491,63.713,33.7Zm.982-2.949c.021-.239-.089-.347-.327-.328Q64.338,30.777,64.695,30.746Zm.328-1.2c-.139-.149-.535-.169-.546.109C64.732,29.687,64.948,29.887,65.023,29.545Zm-.109,4.915a.3.3,0,0,0,.219.328.513.513,0,0,1,.109-.328Zm-1.2-14.31c.217,0,.138.3.436.219.035-.148.156-.209.11-.437C63.988,19.916,63.729,19.912,63.713,20.15Zm.327-2.076v-.327c-.206-.025-.241.123-.437.109C63.493,18.184,63.847,18.049,64.04,18.074Zm-.546,24.251c.12.08.212.139.328.219.086-.143.427-.579.218-.656a1.439,1.439,0,0,1-.765.219C63.23,42.327,63.385,42.251,63.494,42.325ZM60.982,53.358c.306.058.568.16.874.218.2-.283-.048-.329.108-.655-.208-.047-.274-.236-.546-.218C61.553,53.2,61.035,53.048,60.982,53.358Zm-.438-7.537a.3.3,0,0,1-.217-.327c.06,0,.123-.089,0-.111C60.056,45.517,60.288,46.255,60.544,45.821Zm-1.529,7.537c.085.085.592-.033.218-.218C59.288,53.229,58.969,53.312,59.015,53.358Zm-.109,1.42c.343-.121.288-.051.546.109.031-.249-.026-.41-.219-.436C59.277,54.712,58.736,54.39,58.906,54.778Zm-.874.328c.19.188.255.32.437.219.115-.407-.368-.215-.437-.438.085-.024.215,0,.219-.109C57.736,54.889,57.841,54.916,58.032,55.106Zm.437,1.42h-.546c-.019.163.039.4-.109.437a.481.481,0,0,0-.437-.219.711.711,0,0,0,.109.546c.309.091.283-.154.546-.108.057.27.266.388.437.546.079.334-.111.4-.109.655.257.267.2-.163.546-.11.023.123.121.171.219.219-.009.171.317.077.108,0-.1-.032-.478-.295-.218-.327.174.1.405.023.546.108.069.042-.009.329.219.219.139-.339-.361-.3-.547-.436-.034-.026.027-.182,0-.219s-.19.034-.218,0c-.128-.157-.379-.028-.437-.219.145,0,.1-.191.219-.218.279-.118.382.47.547.109-.265-.063-.244-.413-.329-.655a2.144,2.144,0,0,0,.546-.437c-.033.222.316-.023.328-.11a.706.706,0,0,1-.545-.108c.078.3-.516-.079-.438.218.061,0,.125.088,0,.109-.091-.3-.382-.407-.546-.655-.085-.128-.016-.326-.218-.329,0,.062-.089.125-.11,0,.067-.005.129-.015.11-.108-.344-.051-.308.274-.438.437A.776.776,0,0,1,58.469,56.526Zm-1.311-4.151c.288.033.282-.228.328-.436C57.2,51.905,57.127,52.09,57.158,52.375ZM55.738,55c.272-.013.338-.2.546,0,.048-.208.236-.275.218-.546-.387-.171-.065.371-.327.327-.35.1-.227-.283-.437-.327Zm-1.42-.328c.067.006.129.017.109.109.216.033.217-.148.328-.219a.3.3,0,0,0,.328-.217c-.355-.064-.508.073-.765.109Zm-1.092,5.244c-.2.016-.067.37-.219.436.457-.056.3.5.547.655,0-.325.809.155.655-.327.034-.341-.316.278-.327-.109.253-.038.511-.07.436-.437-.272-.017-.338.171-.547.218a.713.713,0,0,1-.108-.546h.327v-.437c-.478-.079.089.218-.219.219a.925.925,0,0,0-.655-.11C52.9,59.7,53.165,59.69,53.226,59.913Zm0,2.731c.325.038.279.449.764.327C54.067,62.6,53.446,62.36,53.226,62.644Zm-.437-.438v.328h.218c.067-.006.13-.017.109-.109C52.961,62.4,52.932,62.245,52.789,62.206Zm-1.966-.218c.029-.1.483-.29.436-.109.014.111-.471.221-.108.327-.037-.2.261.029.217.11-.029.054-.26-.021-.217.109a.682.682,0,0,0,.546,0c.023.123.12.17.218.219-.078-.3.515.078.437-.219-.127-.019-.119-.173-.11-.328.4-.036.568-.306.656-.655-.129-.162-.1-.488-.437-.438-.276.274.125.43.109.765-.347.206-.457-.027-.873.11.294-.284-.134-.33-.11-.656-.479-.047-.358.335-.764.109C50.782,61.671,50.45,61.756,50.823,61.988Zm-1.857.328h.218c0-.11.088-.13.109-.219-.139-.006-.151-.14-.327-.109Zm-.438.655c.172-.01.379.014.328-.219h-.218C48.638,62.862,48.55,62.883,48.528,62.971Zm-1.091,2.512c.176.152.562.092.655.328-.079.33.246.19.218.437,0,.04-.3.172-.328.218-.065.1-.156.274,0,.328.175-.306.229-.317.328-.218.081.08.154-.348.328-.218.051-.343-.295-.289-.328-.547.049-.449-.462-.339-.328-.874a.508.508,0,0,1-.328-.109C47.415,65.124,47.534,65.1,47.437,65.483Zm-1.093-1.529c0-.181.3-.06.328-.219C46.587,63.508,46.014,63.816,46.344,63.954Zm-.547-2.4c.223.061.215.328.438.109C46.263,61.341,45.811,61.241,45.8,61.551Zm-.546.983c-.046-.209-.039-.47-.327-.437C44.893,62.382,44.964,62.567,45.251,62.534Zm-.437,2.622c.034.586.655.583,1.311.546.007-.4.108-.07.328-.109.007,0-.007-.1,0-.11.071-.086.344-.039.437-.108A.508.508,0,0,0,47,65.7c.02.311-.715-.132-.546.328.438-.29.882.43,1.092-.219-.416-.061-.677-.341-.436-.764-.379-.016-.468.187-.656,0-.088-.088.024-.16-.109-.219.012,0-.12.191-.219.109a.712.712,0,0,1-.109-.546c-.35.1-.226-.283-.437-.328a2.5,2.5,0,0,0-.218.984A.711.711,0,0,0,44.814,65.156Zm2.3,1.529c.194-.061.453-.056.545-.219C47.491,66.292,47.2,66.47,47.109,66.685Zm-.984-.219c-.172.3.284.491.328.219C46.281,66.675,46.368,66.407,46.125,66.466Zm-3.932,1.748c.446-.033.058.228.109.437.116.127.5.04.656-.109-.085-.024-.216,0-.219-.109.043-.156.131-.184,0-.328C42.58,68.165,42.174,67.977,42.193,68.214Zm-.546-3.277c-.1.4.721.25.655,0C41.924,65.026,41.841,64.734,41.647,64.937Zm.436,3.824c-.405.067-1.123-.178-1.2.218.405.125.633.01.874.11C41.586,68.7,42.127,69.023,42.083,68.761Zm-2.512,0c.148.034.209.155.437.109-.033.214.148.217.219.327-.061,0-.124.089,0,.109-.047-.3.407-.1.437-.327-.144-.114-.035-.337.218-.437-.026.01.158.161.218,0,.41-.235.331.21.875.109-.1-.142-.017-.427-.11-.546-.124-.158-.332,0-.437-.218v-.438c-.368.033-.316.485-.655.547-.381.092-.582.366-1.093.328C39.7,68.53,39.557,68.564,39.571,68.761Zm-2.512-1.093c-.053.344.155.427.218.656.392.064.528-.128.765-.219.194.2.277-.088.655,0,.031-.216-.116-.241-.218-.328-.361-.3-.505-.146-.874-.109C37.377,67.691,37.168,67.529,37.059,67.668Zm-.328,3.059c.209.2.274.012.546,0,.024.085,0,.215.109.218.032-.067.272-.42,0-.437C37.257,70.733,36.913,70.4,36.731,70.727Zm-1.42-2.4c-.016.452.542.332.874.437a.511.511,0,0,1,.109-.328c-.41.082-.238-.417-.546-.437C35.652,68.155,35.661,68.418,35.311,68.324ZM35.2,69.962c-.158.145-.275.5-.547.218a.617.617,0,0,1-.108.438c.509.073.7-.173,1.091-.219-.042.6.466-.036.547.437-.087.012-.332.361-.109.328.072-.328.233.1.437,0-.129-.29.209-.643,0-.656,0,.143-.3.14-.328,0,.219-.121.636-.333.328-.655h.436c.019-.451-.488-.2-.218-.656-.319-.163-.646-.306-.765.109.067.152.421.017.438.219v.328a1.169,1.169,0,0,1-.766,0c-.2-.206-.295-.506-.546-.656-.035.363-.476-.287-.545.109.25-.024.232.339.327.438S35.153,69.83,35.2,69.962ZM32.689,68.87c.51-.212.48.676.765.327-.132-.023-.068-.121,0-.218-.412-.161-.221-.289-.219-.765a.928.928,0,0,0-.655.11C32.489,68.632,32.734,68.607,32.689,68.87Zm-.218.655c.047.5.591.5.874.765-.032.066-.272.42,0,.437.089-.28.554-.749.218-1.092-.012.087-.361.33-.328.109C33.472,69.531,32.655,69.385,32.471,69.525Zm-1.42.983c.286.26.953.14,1.31.328.018-.129-.018-.31.11-.328s.31.019.328-.109c-.349.094-.338-.172-.547-.219a.3.3,0,0,1-.218.328c-.085-.024-.216,0-.218-.109C31.525,70.644,31.259,70.235,31.051,70.508Zm-.875-.328c.3.076.212-.225.328-.327C30.266,69.834,30.157,69.942,30.176,70.18Zm-.327,2.076c.139.149.535.169.546-.109-.084-.025-.215,0-.219-.11s.089-.129.111-.217A.409.409,0,0,0,29.849,72.256Zm-.328-2.076c.11,0,.131.089.219.11-.011-.172.015-.379-.219-.328Zm-2.84-1.966c0,.11-.088.131-.109.219.139.006.152.14.328.109A.3.3,0,0,0,26.681,68.214ZM26.026,68c.078-.151.852-.153.436-.437,0,.2-.144-.02-.218,0a2.8,2.8,0,0,0-.218.218C25.987,67.831,25.834,67.93,26.026,68Zm-1.093-.109c-.012-.112.471-.222.109-.328C25.1,67.716,24.617,67.825,24.933,67.887Zm-2.184,2.84c-.257,0,.04-.3.218-.219.085.024.127.092.109.219.164-.019.4.038.437-.109-.133-.013-.258-.033-.218-.219-.263.044-.238-.2-.546-.109-.025.084,0,.216-.109.218C22.405,70.194,22.423,71.176,22.749,70.727Zm.109.437c.271.016.53.02.546-.219C23.209,71.005,22.951,71,22.858,71.164Zm-1.966-.656c.288.033.358-.151.327-.436C20.926,70.079,20.7,70.321,20.892,70.508Zm-.983.11c-.153-.008-.418.024-.219.109.279-.012.382-.2.546-.328-.172-.01-.085-.278-.327-.219Zm-.546.546c.161.056.275.161.436.218C19.934,70.952,19.416,70.8,19.363,71.164Zm-.547-1.529c-.021.312-.013.595.328.545-.143-.7.608.123.655-.436-.116-.212-.5-.152-.655-.328a.711.711,0,0,1,.109-.546.527.527,0,0,1-.328-.109c-.026.155-.179.184-.218.328.371.215.107.215-.11,0C18.5,69.436,18.693,69.5,18.816,69.635Zm-2.4.545c-.106.434.61.046.546.438.025.084,0,.215.109.218V70.29C16.838,70.218,16.582,70,16.413,70.18Zm-.437-1.638a1.771,1.771,0,0,1,.764.219.343.343,0,0,0-.108-.328c-.057-.07-.154-.144-.219-.219s-.085-.2-.218-.218C16.288,68.345,16.022,68.334,15.976,68.542Zm-.109.547c.189.026.647-.207.328-.328C16.182,68.967,15.834,68.836,15.867,69.089Zm0,.217c.262-.043-.061.5.328.329C16.31,69.357,15.964,69.012,15.867,69.306ZM27.883,87.441c-.03.225-.484.025-.438.327C27.851,87.969,28.122,87.193,27.883,87.441ZM41.21,91.154h-.328v.328H41.1C41.106,91.342,41.24,91.331,41.21,91.154ZM57.923,87.33c-.2-.161-.37-.293-.546,0C57.443,87.393,57.894,87.586,57.923,87.33Zm1.638,3.824c.052-.34-.294-.41-.328-.11A.517.517,0,0,1,59.561,91.154Zm1.967-5.025c-.309-.164-.5-.441-.984-.437-.114.332.371.253.547.328.051.021.018.18.109.219S61.53,86.21,61.528,86.129ZM65.57,88.97c-.146.016-.407-.368-.437-.11.169.029.075.239,0,.328A.486.486,0,0,0,65.57,88.97Zm1.966-.656c-.2.014-.256-.109-.218-.328a.509.509,0,0,1-.328-.109c-.035.148-.156.209-.11.437C67.16,88.2,67.4,88.646,67.536,88.314Zm1.092-6.773c.11,0,.13.089.219.11C69.16,81.429,68.627,81.306,68.628,81.541Zm2.731-2.185c.1-.225-.283-.49-.327-.218C71.187,79.164,71.216,79.318,71.359,79.356Zm.764-1.638v.328C72.442,78.206,72.442,77.557,72.123,77.718Zm1.53,4.588c-.279.117-.382-.47-.546-.109.192.026.248.187.218.437a.525.525,0,0,0,.328-.109Zm2.076-.327c-.263.044-.238-.2-.547-.11C74.989,82.357,75.76,82.261,75.729,81.979Zm2.731-2.95c-.018-.129.019-.31-.11-.328,0,.144-.191.1-.218.219C78.271,78.926,78.283,79.059,78.46,79.029Zm3.167-5.9c-.206.025-.241-.123-.436-.109C81.015,73.326,81.662,73.323,81.627,73.13Zm1.967-.655a.613.613,0,0,1-.438-.11c.08.3-.217.22-.217.438A.626.626,0,0,0,83.594,72.475Zm0-1.748c.432-.141.223.359.655.218C84.388,70.578,83.7,70.493,83.594,70.727Zm2.184-15.075c.08-.3-.217-.22-.218-.437.224.125.52-.171.218-.218-.093.32-.351-.066-.546,0-.144.274.509.265.109.437-.085-.025-.127-.092-.109-.219-.133-.012-.259-.033-.219-.218a.481.481,0,0,0,.438-.219c-.163-.129-.488-.094-.438-.436.341.119.392.07.219-.219.333-.163.425.035.655-.11.078-.4-.466-.188-.546-.437v-.327c.148.034.209.156.437.109V52.7c.148.034.209.155.437.109a.713.713,0,0,1,.11-.546c-.062-.047-.337-.126-.328-.219,0,.03.193-.065.109-.108-.166-.087-.333.165-.546-.111.023-.122.121-.169.218-.217.017.2.37.066.437.217.027-.192.189-.249.438-.217.157-.668-.627-.394-.547-.984.06,0,.123-.088,0-.109-.024.085-.092.127-.219.109-.033-.477.324-.486.11-.873h.328A1.361,1.361,0,0,0,86,48.989c-.215-.215-.2-.11-.11-.328.053-.132.029-.132.11-.219.052-.055.241.022.218-.109-.408.077-.008-.568.11-.655.129-.017.31.018.328-.11-.062,0-.125-.088,0-.109.081-.372-.445-.139-.328-.546.442.042.12-.681.217-.983-.165-.064-.3-.3-.327-.328s.019-.179,0-.219c-.006-.013-.1.011-.109,0-.036-.029.029-.179,0-.217-.042-.056-.25.022-.219-.11-.056-.134.191-.066.219-.109.065-.1-.068-.335,0-.437.037-.057.253.022.219-.109-.181-.048.139-.417-.11-.547.128-.017.311.02.327-.108-.127-.165-.314-.268-.327-.547-.025-.206.123-.241.11-.436a1.81,1.81,0,0,1-.219-1.53,1.221,1.221,0,0,1-.2-.8l.09-.214a1.934,1.934,0,0,0,0-1.024,6.492,6.492,0,0,0-.469-1.346,2.77,2.77,0,0,0-.2-.368c.068-.072.2-.1.447-.068.08-.445-.617-.442-.218-.874-.541-.159-.715-.461-.547-1.092-.128-.017-.309.019-.327-.109-.051-.343.294-.289.327-.546-.19-.1-.24-.342-.218-.655-.128-.017-.31.018-.327-.11,0-.144.191-.1.218-.219-.279-.011-.217-.365-.218-.655-.129-.017-.311.019-.328-.109.082-.474.073-.415-.11-.655-.075-.1-.084-.176-.218-.219.031.01-.216.214-.218,0-.126-.343.171-.265.218-.437-.191-.012-.062-.275-.109-.437,0-.01-.1.008-.109,0-.031-.024.015-.179,0-.218a5.4,5.4,0,0,0-.219-.656c-.141-.221-.1-.283,0-.437-.34.092-.233-.323-.328-.436-.046-.056-.245.022-.218-.11-.012-.272-.2-.338,0-.546a1.166,1.166,0,0,1-.546-.983c-.271.016-.53.021-.546-.219.144,0,.1-.191.218-.218a.511.511,0,0,1,.328.109v-.436a.919.919,0,0,0-.656-.11v-.546h-.546c.082-.374-.444-.139-.328-.546.086-.025.216,0,.219-.11-.159-.059-.565.128-.547-.109h.219c-.058-.4-.312-.6-.109-.983-.284.066-.393-.044-.327-.327H79.77c.1-.157-.157-.247-.218-.438a.574.574,0,0,0-.328-.437.729.729,0,0,0-.874-.109c-.123-.168-.313-.269-.437-.437-.18-.287.072-.368-.109-.655-.143-.058-.249.12-.327.109a2.126,2.126,0,0,0-.11-.218c-.2-.09-.614.08-.546-.219.294.076.211-.226.328-.327a.548.548,0,0,1-.547-.438c-.263-.044-.236.2-.546.11.064-.465-.59-.212-.437-.765-.455.054-.482-.319-.983-.218a.591.591,0,0,0-.546-.656c-.093.1-.7.233-.765,0,0-.11.089-.129.11-.218-.352-.178-.592-.053-.984,0-.2-.235.035-.483,0-.546-.045-.085-.212.043-.218-.109a.99.99,0,0,0,.109,0c.073-.073-.055-.348,0-.438-.074-.086-.236-.035-.327-.109-.033-.027.034-.2,0-.219s-.352-.1-.328-.108c-.01,0,.008.1,0,.108-.073.073-.2-.213-.219-.218a4.521,4.521,0,0,0-.546,0c-.163-.024-.2-.112-.437-.109-.207,0-.314.158-.546.109-.045-.263.2-.237.11-.546-.337,0-.642.588-.984.218.045-.209.423-.086.327-.436-.152-.09-.388.13-.436.109s.028-.29,0-.328c-.143-.188-.661.021-.655-.219.084-.024.215,0,.218-.109-.433-.236-1.057.144-1.529.219-.115.406.368.214.436.437a.776.776,0,0,0-.327.218,2.619,2.619,0,0,0,.437.437c-.13.308-.538.336-.765.546.153-.005.326.084.328.219,0,0-.221-.088-.219-.11-.04.392.139.306.219.438.107.177.055.359.327.436-.028-.008.214-.216.219,0-.177-.032-.3.148-.109.219,0-.06.088-.123.109,0,.09.212-.195.248-.219.328-.054.189.124.252.11.437,0,.028-.215.164-.11.328.344.124.266-.172.437-.219-.12.423.386.388.11.655.4-.168.605.4.328.547a.44.44,0,0,0-.656.108c.243.086.592.064.656.328.046.3-.407.1-.438.328.435.018.095.618.11.655l.218.219c.072.073.208.083.218.218-.613-.019.381.37,0,.437-.092-.1-.268-.072-.655-.109.04.392.293.4.109.765.223.057.207-.181.328-.218.051-.016.3.037.328,0,.108-.137-.211-.319,0-.328.237.227-.014.353-.11.546.133.023.068.121,0,.218.389.218.032.5.11.983-.36,0-.47.382-.546.547-.03.063-.194.138-.11.327.216-.033.217.148.328.219.019-.127.173-.119.328-.109,0,.109.088.129.109.218-.309-.018.091.673-.219.655-.115,0-.277.052-.108.11.771-.055-.072.847.327,1.092-.075.043-.261-.053-.327,0-.158.128.038.244,0,.327-.068.148-.384.145-.328.329a.887.887,0,0,1,.655.218c-.034.257-.379.2-.327.546.273-.019.341.168.436.328-.25.279-.047.6-.218.765-.364.074-.176-.226-.11-.328-.405.025-.306.387-.218.655.164.019.4-.038.437.11.039.283-.385.173-.437.218s.094.326.11.109c.311.18-.054.593-.11.765.268.012.024.361-.109.328-.028-.154-.24-.125-.328-.219-.034.236.136.25.219.437-.016-.036-.124.04-.11.11-.009-.047.11.108.11.108a.769.769,0,0,0,.328.219v.437c-.285.086-.236.123-.328.327-.017.039-.209.057-.219.11-.031.164.017.385.219.328.385-.032-.385-.3,0-.328.129.017.31-.019.328.109-.212.2-.015.317,0,.437s-.123.136-.11.219c0-.023.1.073.11.109.032.081,0,.218.108.218.164.681-.369.879-.436,1.311.006-.042.1.156.109.218.057.471-.262.194-.219.547.066.188.519-.009.546.218-.019.162-.263.1-.436.11-.026-.34-.388-.341-.655-.437-.024.085-.092.127-.219.109a.3.3,0,0,1-.219.328c-.163.018-.4-.039-.436.109.2-.006.231.084.109.218a.5.5,0,0,1,.327.109c.038.03-.034.186,0,.219.082.076.251.031.328.11a.606.606,0,0,1,.11.327.509.509,0,0,0-.328.109c-.045.263.2.237.109.547.249-.031.411.026.437.218-.156.39-.637.455-.765.873a.4.4,0,0,1,.437.328c.012.057-.029.17,0,.219.02.033.19-.029.218,0,.081.08-.053.447-.218.327-.142.271.321.454,0,.547-.257,0-.322-.188-.655-.109-.037.255-.112.47-.328.545-.343-.051-.289.3-.547.329a.233.233,0,1,0,0,.437c.009-.221-.01-.317.219-.328.252-.014.548-.412.656,0-.018.128.019.31-.109.328-.14-.006-.152-.141-.328-.11-.043.443.681.121.983.218v.656c-.159.06-.565-.128-.546.109a5.061,5.061,0,0,1,.437.547c-.3.306-.272.086-.656,0-.067.413-.3.038-.656.217-.085.451.524.207.438.656h-.327c-.155.424.207.395.217.546h-.217c-.062.391.321.9.108,1.093-.294.1-.125-.216-.219-.328-.078-.095-.284-.085-.327-.218.019-.164-.039-.4.11-.437,0,.061.088.124.109,0-.356-.366-.256.207-.437.328-.086.024-.216,0-.219.109.218-.032.241.117.328.218.282.327.132.334.219.875-.164.017-.4-.04-.438.108.261.032-.121.3-.218.328h-.546c-.044.284-.327.33-.328.655.6-.019.833.333,1.53.219,0,.144.191.1.217.219-.378-.088-.419.162-.764.109.024-.138.17-.223-.109-.219-.108.436.327.329.218.765-.483-.156-.285.37-.655.328-.274-.164-.384-.491-.546-.765.11.035.072-.071.109-.109.083-.088.075,0,0-.109.147.217-.24-.054-.328-.11-.152-.1-.313-.447-.328-.109.259.106.537.192.438.655h-.547a1.1,1.1,0,0,0-.108.874c-.489.021.036.61.217.656a.535.535,0,0,1,.219-.547c.067.152.421.017.437.219a1.749,1.749,0,0,0-.546.983.623.623,0,0,1,.655.328.407.407,0,0,1-.546,0c-.012.133-.033.258-.219.218a.772.772,0,0,1-.217.328c-.141,0-.152.14-.328.109-.047-.209-.04-.47-.328-.437a.536.536,0,0,0-.219.547c-.127.163-.315.266-.327.545.442-.151.345.238.655.219.354.135.083-.354.436-.219.2.5-.433.149-.327.546-.033.191.239.038.327.11s.013.266.111.328.331-.054.327.109c-.222-.061-.206.185-.327.219.041-.012-.054-.11-.111-.11-.161,0,.006.155-.108.219-.084.046-.242-.043-.328,0s.025.182-.109.218c-.068.019-.15-.013-.219,0-.082.337.377.133.219.547.067.151.42.016.437.218-.407-.116-.353.23-.547.327-.411-.5-.767.346-1.31,0,.067.365.32.374.109.765.206.275.567-.229.655.219-.257,0-.321.188-.655.109-.05-.315-.386-.342-.328-.765-.1-.116-.4-.034-.328-.328-.518-.19-.534.18-.983,0,.082.336-.3.21-.219.546.331.151.391-.051.875,0-.319.334.174.647.108.983-.044.233-.232.168-.327.438.134.012.259.033.219.218-.217-.182-.139.01-.437,0-.043.119-.132.263,0,.109.271-.016.529-.02.545.219-.115.1-.033.4-.327.328-.172-.01-.085-.279-.328-.219-.171.047-.093.344-.436.219a.3.3,0,0,0,0-.437c-.454.03-.426-.144-.765,0-.09-.4-.986-.252-.983.109.252-.033.121.316.327.328-.032-.215.148-.217.219-.328-.061,0-.125-.088,0-.109.162.057.275.161.437.218.067.152.421.017.437.219-.258.033-.2.379-.546.328-.142.271.32.453,0,.545-.308-.02-.3-.356-.547-.437-.135.3-.317.169-.546.11.472-.56-.609-.834-.218-1.311a.782.782,0,0,0-.983.218c-.128-.163-.454-.128-.437-.436-.207-.025-.241.123-.437.109-.089.311-.372.429-.546.655.163-.019.4.039.436-.109-.256-.124.28-.365.438-.437a6.519,6.519,0,0,1-.328.765h.655c-.026.536.724.3.546.983.227.064.353.229.546.328a.7.7,0,0,1,.656-.547c.211.237.6.264.765.438-.019.127-.173.118-.328.109-.173-.011-.085-.279-.327-.219-.152.067-.017.421-.219.437-.06.159.127.564-.109.546-.225-.4-.57-.007-1.093-.109-.222-.032-.214-.3-.437-.328-.29.5.2.7.219,1.2a.806.806,0,0,1-.765-.219c-.037-.03.034-.184,0-.218-.087-.087-.17.032-.219-.109s.065-.412-.108-.437c-.012.389-.481.32-.656.546.186.045-.023.141,0,.328.379-.04.71-.257.656.328.432.258.793-.322.982.108-.164.17-.408.1-.546.219-.1.082-.085.279-.218.328-.16.059-.381-.046-.546,0-.09.612-.83.029-1.093.328.178-.033.295.147.11.218-.217.056-.25-.6-.438-.218.268.069.017.51-.109.546-.388-.218-.032-.5-.109-.984-.71.107.052-.41-.218-.437-.164.128-.268.317-.546.328-.008-.2-.281-.053-.437-.109-.075-.026-.3-.493-.329-.109.366.207.07.441.11.873.171.011.379-.014.328.219-.274-.013-.342-.208-.438.109.225-.056.233.151.329.219s.261.1.327.218c-.023.085-.091.128-.218.11a.524.524,0,0,1-.109.327c.3-.175.3.472.109.438a.718.718,0,0,1-.219-.875,4.136,4.136,0,0,0-.764.219c.335-.5-.6-.071-.765,0-.012-.134-.033-.258-.218-.219a.711.711,0,0,0-.11.547c-.192.025-.249.187-.219.436a.555.555,0,0,0-.327.328c0,.1-.1.078-.109.109-.031.109.061.347,0,.438-.049.071-.371-.061-.328.108.127.019.119.174.109.328.2-.014.255.109.219.328a2.042,2.042,0,0,0-.874.109c.075-.294-.226-.211-.328-.327-.017.128.019.31-.109.327a.928.928,0,0,0-.655-.109c.317-.18-.3-.536-.328-.328.267.013.023.361-.109.328a1.5,1.5,0,0,0-.656,0c-.137.009-.154-.155-.327-.109-.064.017-.153.289-.219.328a.543.543,0,0,1,.327.327c-.491.078-.173.525-.546.546-.007,0,.011-.206,0-.218-.065-.073-.352.055-.437,0-.095-.387-.013-.269-.108-.655a13.754,13.754,0,0,0-1.53-.328c-.175.386.111.6-.218.874.47-.039.421.272.327.546.309.011.464.411.765.109a.71.71,0,0,1,.109.547.515.515,0,0,0-.328.108c.21-.378-.657-.391-.327-.218.085.024.215,0,.218.11-.065.158-.106.209-.328.327v-.11c-.028-.027-.207.1-.218.11-.257.247-.518-.057-.765.109.054-.282-.386-.619-.546-.328.085.025.216,0,.218.109,0,.145.192.1.219.219-.009.655-.825.592-1.2.328-.011.278-.407.258-.546.109a.45.45,0,0,1-.219.656c-.074-.034-.049-.29-.108-.328-.113-.073-.554-.044-.547.109.16.095.346.164.328.437-.227.118-.273.253-.437.328-.091.041-.145-.121-.219-.109s-.124.318-.327.218c-.047-.172-.343-.093-.219-.437-.409.215-.238-.1-.545-.218-.136.378-.319.2-.547.327-.191.387.073.269.109.656-.14.162-.489.211-.546.327.022-.043.175.076.109.109s-.153-.113-.218-.109c.064,0-.115.114-.109.109-.258.165-.429.1-.765.219-.288.033-.086-.424-.437-.328-.065.2.32.454,0,.547-.151-.067-.016-.421-.219-.438-.215.65-.744-.361-.983,0,.1.033.556.22.219.328-.207-.012-.076-.361-.327-.328a.3.3,0,0,1-.328.219c.172-.5-.454-.2-.437-.546.032-.215-.148-.217-.219-.328-.309-.09-.282.154-.545.11a.707.707,0,0,1,.108-.547H32.58a.517.517,0,0,0,.109.328,2.814,2.814,0,0,1-.873.219c-.025.084,0,.215-.11.218.02-.239-.09-.347-.328-.328-.37.233.237.595,0,.655-.215.033-.217-.146-.327-.217a.3.3,0,0,0-.328.217c.129.017.31-.018.328.11-.12.2-.489.1-.656.218-.056.04.023.252-.108.219a.965.965,0,0,1-.875-.219.3.3,0,0,1-.219.328c-.251-.263-.352-.167-.764-.109.318-.308-.327-.137-.218-.547.212-.089.247.2.327.219.189.055.252-.124.437-.109.029,0,.165.214.328.109.047-.172.343-.093.218-.436-.4-.083-.2.314-.546.327a1.31,1.31,0,0,0-.109-.219c-.285-.265-.6-.133-.874.109.029-.319-.247-.335-.219-.655a.621.621,0,0,0,.438-.109c.122-.012.17.159.218,0-.3-.072-.177-.422-.327-.546-.036-.029.027-.18,0-.219-.052-.073-.225-.082-.219-.218.167-.026.016-.18-.11-.218-.12.211.019.843-.545.873a.614.614,0,0,0-.11-.437c-.206-.024-.241.124-.437.11-.085.239-.309.375-.437.546-.072.1-.036.222-.109.328-.025.034-.185-.03-.219,0-.054.047.044.267,0,.328.349.092.415-.1.546-.219.168.3-.038.532.219.874-.205.025.062.179-.109.218-.139.037-.149-.2-.218-.218-.11-.031-.3.123-.328.109-.14-.086-.405-.477-.328-.656-.286.031-.47-.039-.437-.327,0-.144.191-.1.219-.219-.352-.024-.462.193-.874.11,0-.11-.089-.13-.109-.219a5.8,5.8,0,0,1,.109-.874c-.413.024-.531.343-.875.437.038.364.317.485.219.984-.4,0-.16.64-.655.545a.3.3,0,0,0-.219-.328c-.017.129.019.311-.109.328-.152-.138-.047-.535-.327-.545-.056.234-.113-.1-.219-.11,0,0-.02.181-.109.11-.037-.4-.433-.441-.328-.984h-.546c.1.294-.225.127-.327.219s-.013.361-.219.327c0-.33-.363-.276-.437-.437-.048-.1.187-.183,0-.218-.087.241-.514.141-.546.437a.381.381,0,0,1,.218.656c.1.115.4.033.328.327a1.738,1.738,0,0,1-.984-.327c0,.06-.088.123-.108,0-.264-.046-.238.2-.547.108-.118-.19-.393-.007-.547-.108-.081-.056-.016-.382-.217-.328-.013.133-.033.258-.219.218.016-.271.02-.53-.219-.546-.179.184-.592.136-.764.328-.193-.225-.338-.1-.437-.219.024-.389-.074-.654-.328-.765-.085.361-.266-.043-.436,0-.121.031-.228.5-.438.219-.024.085,0,.215-.109.218a1.206,1.206,0,0,0,.547.983c-.086.025-.128.093-.11.219a.216.216,0,0,1,.218.109,4.529,4.529,0,0,0,.438.655q-.359-.029-.328.328c.112.036.141.147.218.219s.206.084.219.218c.032.1-.04.236,0,.328.023.053.185.156.218.218.125.232.015.476.11.656.055.105.358.16.327.328-.023.424.116.685.437.764.459-.076-.1-.5.328-.546-.052.343.294.288.328.546a1.122,1.122,0,0,1,.764,1.2c.085.024.216,0,.219.109-.143,0-.14.3,0,.328.044-.272.423-.007.328.218h-.328v.438a.713.713,0,0,0,.546.108c-.1.351.36.15.328.437-.132.024-.068.121,0,.219.354.135.083-.354.436-.219.193.027.25.188.219.438.354.134.083-.354.436-.219-.009.3.183.22,0,.437.146.109.408.1.438.328-.086.024-.127.091-.11.218-.06,0-.123.088,0,.109.136-.332.376.119.656,0-.151.235.17.3.218.437s-.066.413.11.438a.257.257,0,0,1,.437.108c-.154-.008-.418.025-.219.109.32.029.335-.246.655-.217.025.206-.122.24-.109.436.405-.076.483.173.437.547.272.016.338-.173.546-.219-.038.548.446.574.547.983h.546c.032.381.295-.01.328.218-.133.023-.068.122,0,.219,0,.109-.089.13-.109.218.412-.1.512-.006.764-.109-.183.647.629-.135.546.546.355.126.672-.333.875,0-.024.132-.122.067-.219,0-.037.469.4.3.655.219.1.192.037.545.219.656.024-.086,0-.216.109-.219.133-.057.066.192.109.219.161.1.275-.18.437-.111.066.195-.32.455,0,.547.027-.192.189-.249.437-.219-.075.295.226.212.328.329-.02-.239.089-.348.327-.329-.1.506.251.318.546.438.013,0-.009.1,0,.109a2.8,2.8,0,0,0,.328.109c.22.146.594.11.874.218.035.015.065.2.11.219.088.042.241-.045.327,0s.1.291.328.219c.145,0,.1-.192.218-.219.188.043.28-.162.329,0,.031.215-.148.217-.219.327.442-.018.432.135.327.219-.078.063.1.105.109.109v-.109c.087-.086.1.2.11.218.058.082.353.043.437.11.268-.146-.2-.33.109-.437.085.024.127.091.109.218.085.025.216,0,.219.109a.709.709,0,0,0,.546-.109.612.612,0,0,0,.109.438.9.9,0,0,1,.656.217c.325,0,.371-.283.655-.327v.546c.421.123.5.259.983.109.272.379.951.157,1.311,0,.055.071.114.325.218.328-.006,0,.037-.208.109-.218a1.113,1.113,0,0,1,.765.218c.03.036.18-.029.219,0,.09.068.123.262.218.328a1,1,0,0,0,.546.109c.071,0,.118.11.11.109.189.015.321-.17.546-.109a.513.513,0,0,0,.109.328c.32.028.336-.247.656-.219.257.034.2.38.546.328a.53.53,0,0,1,.327-.218,5.289,5.289,0,0,0,1.639-.219c.011.1.031.3.109.328.12.037.171-.078.218-.109.381-.247.185.2.328.218s.33-.113.547-.109c.171,0,.419.226.655.109a.3.3,0,0,1,.218-.328c.489-.081,1.55-.3,1.858.11.528-.1,1.2-.27,1.42-.328.116-.031.4-.111.436-.109.149.007.193.229.328.218a1.206,1.206,0,0,1,.219-.218c-.044.014.051.112.109.109,0,0-.005-.1,0-.109.133-.163.551.109.546.109.021,0,.171-.216.328-.109.143-.029.143.189.218.218.126.05.313-.051.437,0s.175.387.437.219c.024-.086.091-.128.218-.11.019-.163-.038-.4.11-.436.357.286-.027-.339.437,0,.017-.129-.02-.31.108-.328.244.252.427-.038.766,0V88.1c.35.095.226-.284.436-.328.016.463.9.173.984,0,.09-.309-.154-.283-.11-.546.294.261.581-.146.874-.219.14.006.151.141.328.11.019-.164-.039-.4.109-.438.207-.024.241.124.438.109.073-.047.271-.332.436-.327.005,0-.006.1,0,.109.152.152.106-.462.328-.327.277.37.495-.009.984,0a.48.48,0,0,1,.217-.438c.218.183.14-.009.438,0,.009.172-.015.379.217.328-.053-.667,1.017-.69,1.421-.546,0-.144.192-.1.219-.218.139-.006.151-.141.327-.109.09-.31-.154-.283-.109-.546.442.052.25-.218.546-.328-.142.052.318.024.438,0-.214.21-.115.668.327.545.062-.235-.16-.227-.219-.436.005.018.126-.026.109-.109-.008-.04-.106.008-.109-.11s0-.311.109-.328c.1.16.087.423.438.328.2-.208.011-.274,0-.545.129.053.367.224.546.108.056-.036-.023-.254.109-.219.258.034.2.38.546.328.006-.139.14-.151.109-.328-.118-.025-.262-.179-.109-.218.217.183.139-.009.437,0,.222.032.214.3.438.329.01-.272.149-.269.108-.547,0-.029-.507-.29-.108-.328.179,0,.06.3.217.328.024-.086.092-.127.219-.11.158-.412-.3-.209-.219-.545.408.065.691-.28.984,0-.087-.376.1-.564.328-.328.158-.414-.3-.21-.219-.546a.709.709,0,0,1,.546.109c.082-.337-.3-.21-.219-.547.11,0,.131-.088.219-.109.229.135.426.3.656.437V81c-.129-.018-.311.017-.328-.111.308.091.283-.153.546-.108.09-.309-.154-.284-.11-.547.223-.032.215-.3.438-.327-.019.46.244.075.328,0,.145.109.406.1.436.327.025.085,0,.216.109.219.065-.227-.135-.718.11-.765.139.007.151.14.327.11,0-.4.517-.285.656-.546a.483.483,0,0,1-.219-.438c.3.3.1-.16.328-.218.014.4.159.274.437.218.025-.206-.123-.24-.109-.437.511.029.152-.13.327-.436.489.015.546-.4.984-.438-.08.3.217.221.218.438-.085.024-.216,0-.218.109.108.119.595.41.764.108-.277-.251-.156-.486-.109-.873a.994.994,0,0,1-.655-.109c-.152-.038-.23-.031-.328-.109-.063-.052-.144-.071-.11-.219a.6.6,0,0,0,.765-.109c.018.129-.018.31.11.328.087-.35.561-.313.765-.546.023.084.09.126.218.108.2-.633-.372-.5-.328-.983.394.266.083-.135.11-.218.006-.021.2.016.218,0,.139-.1.069-.5.109-.546.213-.151.346-.045.437-.219.014-.027-.162-.025,0-.108.109-.057.325.048.327-.11-.193-.053.048-.116.11-.219-.257-.03.01-.407.109-.436.2-.105.365.327.437,0-.041.027-.182-.156-.109-.219.019-.017.214.019.218,0,.037-.155-.243-.369,0-.437.147.035.21.155.437.109-.022-.459-.039-.913.328-.983.4-.018.314.154.437,0,.042-.053.313.247.328,0a2.393,2.393,0,0,1-.328-.874c.539.139.257-.544.546-.655.076.216.291.291.546.328.132-.35-.142-.481.437-.437.17-.389-.371-.066-.327-.328.2-.211.2-.087.109-.437h.328c.009-.3-.182-.22,0-.437a.3.3,0,0,1-.328-.219c.452.064.371-.381.546-.436.125-.039.162.175.328.109a1.829,1.829,0,0,1,.327-.437c.194.2.319-.048.547-.109.121-.011.169.158.218,0-.172-.011-.086-.279-.328-.219-.026.193-.188.249-.437.219.206-.267.2-.753.765-.656.017-.128-.018-.31.11-.327.115.126.5.039.655-.11-.17-.029-.076-.239,0-.327-.279.056-.382.145-.547-.11.123-.344.011-.247,0-.655.309.09.284-.155.547-.109v-.983c.267-.193.155-.431.218-.765s.317-.221.11-.547a.3.3,0,0,1,.436,0c.04-.289-.056-.465,0-.655-.024.081.159-.253.11-.218.028-.021.2.029.218,0,.045-.087-.035-.237,0-.328.276-.079.985-.577.984-.765,0-.093-.438-.188-.328-.327.289-.256.6-.7.436-1.093.315.022.556-.027.656-.218a.482.482,0,0,1-.219-.437c.207-.025.241.123.438.109-.059-.239-.265-.706.108-.765.032.255.3.255.328,0-.114,0-.086-.14.11-.109.017-.309-.328-.254-.328-.546.446.034.058-.228.109-.437-.272-.2-.546-.388-.8-.6a2.143,2.143,0,0,0,.143-.664,1.39,1.39,0,0,1,.334.059c.026.01.073.2.108.219.1.061.331-.052.328.109-.327.072.1.234,0,.437.318-.237.629.2.765-.219-.076-.215-.609.028-.655-.218.078-.334-.112-.4-.11-.655.188-.043.28.162.328,0-.168-.026-.016-.18.109-.218.019-.164-.039-.4.11-.438C85.249,56.132,85.511,55.359,85.778,55.652ZM54.973,60.787c.159-.339-.017-.424-.218-.656C54.765,60.475,54.463,60.782,54.973,60.787Zm1.2.109a.44.44,0,0,0-.655-.328C55.588,61.053,55.763,60.755,56.175,60.9Zm6.008-6.227c-.206-.012-.076-.361-.327-.327C61.828,54.53,62.061,54.988,62.183,54.669Zm.437.218c.018-.273-.168-.342-.328-.436v.436Zm3.6-10.486c-.015-.125.218-.251,0-.328-.03.224-.292.218-.436.328-.1.35.282.227.327.437,0,.144-.192.1-.219.218.343-.074.446.013.547-.109-.067-.006-.13-.016-.11-.109C66.545,44.7,66.242,44.534,66.225,44.4Zm1.857-14.31h-.328c-.1.225.36.414.328.218C67.951,30.286,68.015,30.188,68.082,30.091ZM85.887,65.156c.086.024.127.091.11.219.255-.038.471-.112.545-.328C86.35,65.11,85.9,64.914,85.887,65.156Zm-.109,2.4c-.066-.006-.129-.016-.109-.11-.012-.266-.361-.023-.328.11C85.408,67.591,85.762,67.831,85.778,67.559Zm.328-.437c.019-.128.173-.119.328-.109v-.437c-.192.063-.642-.132-.656.109C86,66.715,85.881,67.092,86.106,67.122Zm.436.655c.067.064.52.256.547,0-.085-.024-.127-.091-.109-.218C86.731,67.529,86.569,67.585,86.542,67.777Zm.219-1.857a.508.508,0,0,1-.327-.109c-.032.54-.484.026-.547.437.339.092.49-.128.655-.218C86.619,65.988,86.766,66.039,86.761,65.92Zm.765-3.932c-.222.033.023-.316.11-.328,0,.061.088.124.108,0-.35-.123.105-.312.328-.218.074-.393-.367-.216-.546-.328-.055-.035.022-.255-.109-.218.022.209-.23.127-.328.218s-.086.28-.219.328c-.3-.144-.375.432-.217.109h.327C86.939,61.855,87.353,62.258,87.526,61.988Zm.656,1.311c.131-.023.067-.122,0-.219.084-.024.215,0,.218-.109-.206-.158-.484-.244-.437-.655-.464-.1-.549.178-.655.436.2.1.365-.327.436,0-.2.209.065.2,0,.547a.752.752,0,0,1,.328.219c.035.147.156.208.11.436-.272-.1-.032.626,0,.219v-.219c.147.035.208.156.436.109C88.732,63.549,88.367,63.514,88.182,63.3Zm.983-31.679a1.445,1.445,0,0,0-.765.219C88.737,31.835,89.173,32.158,89.165,31.62Zm.874,25.562H89.82c-.067,0-.129.016-.109.108.335.108-.126.292-.11.438C90.1,57.9,89.838,57.308,90.039,57.182Zm.328-2.076c-.142-.15-.475-.108-.766-.109-.1-.192-.2-.38-.545-.328.148.476-.261.4-.328.656a.761.761,0,0,1,.764.109c-.156.171-.569.085-.546.437.192-.064.642.132.655-.11-.257-.029-.066-.483.11-.436a.55.55,0,0,0,.328.327C89.889,55.211,90.234,55.265,90.367,55.106Zm-.11,2.731c.159-.06.565.127.546-.109C90.46,57.783,90.357,57.47,90.257,57.837Zm.437-7.865c-.182.145-.7-.04-.655.327.092.163.351.159.546.219A.709.709,0,0,1,90.694,49.972Zm.437-.437c.071.087.343.039.437.109.014-.2-.109-.256-.328-.219-.1-.47-.344-.165-.655-.327-.076.437.319.236.546.327C91.143,49.431,91.122,49.523,91.131,49.535Zm-70.567,22.5c.291-.037.369-.286.436-.545-.271.016-.337-.172-.545-.219C20.456,71.564,20.414,71.9,20.564,72.037ZM51.806,56.744c.147-.033.209-.155.436-.109.116-.276-.368-.484-.436-.218.084.023.127.091.109.218C51.688,56.577,51.683,57.061,51.806,56.744Zm6.663,0c-.213-.051-.558.3-.327.328C58.1,56.81,58.639,57.133,58.469,56.744ZM88.728,65.92c-.026.157-.18.184-.219.328.129-.016.31.019.328-.109C88.632,66.112,88.9,65.959,88.728,65.92ZM10.514,75.315c0-.018-.22.206,0,.219.077-.273.108-.45-.109-.656C10.2,75.1,10.472,75.079,10.514,75.315ZM58.469,91.154c-.225-.1-.414.36-.218.328.006-.067.016-.13.109-.109a.11.11,0,0,0,.218,0C58.494,91.349,58.451,91.281,58.469,91.154Z"/><text x="0" y="115" fill="#000000" font-size="5px" font-weight="bold" font-family="'Helvetica Neue', Helvetica, Arial-Unicode, Arial, Sans-serif">Created by Spencer Harrison</text><text x="0" y="120" fill="#000000" font-size="5px" font-weight="bold" font-family="'Helvetica Neue', Helvetica, Arial-Unicode, Arial, Sans-serif">from the Noun Project</text></svg>