<svg  xmlns="http://www.w3.org/2000/svg" version="1.1" x="0px" y="0px" viewBox="0 0 100 100" style="enable-background:new 0 0 100 100;" xml:space="preserve">
            <path d="M36.7,50c0-1.6-0.6-3.1-1.7-4.2L12.7,23.5c-2.3-2.3-6.1-2.3-8.4,0c-2.3,2.3-2.3,6.1,0,8.4l18,18l-18,18     c-2.3,2.3-2.3,6.1,0,8.4c1.2,1.2,2.7,1.7,4.2,1.7c1.5,0,3.1-0.6,4.2-1.7L35,54.2C36.1,53.1,36.7,51.6,36.7,50z"/>
            <path d="M65.4,45.8L43.1,23.5c-2.3-2.3-6.1-2.3-8.4,0c-2.3,2.3-2.3,6.1,0,8.4l18,18l-18,18c-2.3,2.3-2.3,6.1,0,8.4     c1.2,1.2,2.7,1.7,4.2,1.7c1.5,0,3.1-0.6,4.2-1.7l22.3-22.3C67.7,51.9,67.7,48.1,65.4,45.8z"/>
            <path d="M95.8,45.8L73.5,23.5c-2.3-2.3-6.1-2.3-8.4,0c-2.3,2.3-2.3,6.1,0,8.4l18,18L65,68c-2.3,2.3-2.3,6.1,0,8.4     c1.2,1.2,2.7,1.7,4.2,1.7s3.1-0.6,4.2-1.7l22.3-22.3C98.1,51.9,98.1,48.1,95.8,45.8z"/>
</svg>
