<svg xmlns="http://www.w3.org/2000/svg" version="1.1" x="0px" y="0px" viewBox="-205 -100 100 125" style="enable-background:new -205 -100 100 100;" xml:space="preserve">
    <switch>
        <g>
            <path d="M-137.2-90.7c-0.1,0-0.2,0-0.2,0c-4.5,0-9.8,1.2-15.1,3.3c-1,0.4-1.9,0.8-2.8,1.3l0,0c-3-2.9-7.8-2.9-10.8,0l-14.7,14.3    c-1.9,1.9-3,4.5-3,7.2v28h0.6c0.8,0,1.5,0.7,1.5,1.5s-0.7,1.5-1.5,1.5h-0.6v17.3c0,3.9,3.2,7.1,7.1,7.1h32.1    c3.9,0,7.1-3.2,7.1-7.1v-17.3h-0.7c-0.8,0-1.5-0.7-1.5-1.5s0.7-1.5,1.5-1.5h0.7v-28c0-1.4-0.3-2.7-0.8-4c3.1-1.7,5.8-3.7,7.9-5.8    c5.1-5.2,4.6-9.1,3.8-11C-127.5-87.5-129.9-90.7-137.2-90.7z M-175.5-33.7h-1c-0.8,0-1.5-0.7-1.5-1.5s0.7-1.5,1.5-1.5h1    c0.8,0,1.5,0.7,1.5,1.5S-174.7-33.7-175.5-33.7z M-167.9-33.7h-1c-0.8,0-1.5-0.7-1.5-1.5s0.7-1.5,1.5-1.5h1c0.8,0,1.5,0.7,1.5,1.5    S-167-33.7-167.9-33.7z M-160.2-33.7h-1c-0.8,0-1.5-0.7-1.5-1.5s0.7-1.5,1.5-1.5h1c0.8,0,1.5,0.7,1.5,1.5S-159.3-33.7-160.2-33.7z     M-152.5-33.7h-1c-0.8,0-1.5-0.7-1.5-1.5s0.7-1.5,1.5-1.5h1c0.8,0,1.5,0.7,1.5,1.5S-151.7-33.7-152.5-33.7z M-144.9-33.7h-1    c-0.8,0-1.5-0.7-1.5-1.5s0.7-1.5,1.5-1.5h1c0.8,0,1.5,0.7,1.5,1.5S-144-33.7-144.9-33.7z M-145.9-71.6c-3.1,1.3-6.2,2.2-9.1,2.6    c0,0.1,0,0.2,0,0.4c0,3.2-2.6,5.9-5.9,5.9c-3.2,0-5.9-2.6-5.9-5.9c0-3.2,2.6-5.9,5.9-5.9c1.9,0,3.6,0.9,4.7,2.4    c2.7-0.5,5.7-1.3,8.5-2.5c1-0.4,2-0.9,2.9-1.3l-5.9-5.7c0.2-0.1,0.3-0.1,0.5-0.2c4.5-1.8,9.1-2.9,12.8-2.9c0.1,0,0.1,0,0.2,0    c3.5,0,4.8,1,5,1.5C-131.6-81.8-135.5-75.9-145.9-71.6z"/>
        </g>
    </switch>
</svg>