<svg xmlns="http://www.w3.org/2000/svg" viewBox="0 0 6.3499999 6.3499999" version="1.1" x="0px" y="0px">
    <g transform="translate(0,-290.64999)">
        <path d="M 12.003906 0.99804688 C 5.9406185 0.99804688 0.99609375 5.9347398 0.99609375 11.998047 C 0.99609375 18.061316 5.9406185 23.003906 12.003906 23.003906 C 18.067194 23.003906 23.001953 18.061316 23.001953 11.998047 C 23.001953 5.9347398 18.067194 0.99804688 12.003906 0.99804688 z M 10.998047 3.0566406 L 10.998047 4.0019531 A 1.0009765 1.0009765 0 0 0 13 4.0019531 L 13 3.0566406 C 14.740271 3.2472025 16.326332 3.9302355 17.621094 4.9648438 L 16.949219 5.6347656 A 1.0021986 1.0021986 0 1 0 18.365234 7.0507812 L 19.035156 6.3789062 C 20.069763 7.6736685 20.752798 9.2597305 20.943359 11 L 19.998047 11 A 1.0001001 1.0001001 0 0 0 19.902344 11 A 1.0013833 1.0013833 0 0 0 19.998047 13.001953 L 20.943359 13.001953 C 20.75142 14.741355 20.066144 16.326212 19.03125 17.621094 L 18.365234 16.951172 A 1.0001001 1.0001001 0 0 0 17.650391 16.648438 A 1.0001001 1.0001001 0 0 0 16.949219 18.367188 L 17.619141 19.033203 C 16.324602 20.068563 14.739725 20.754476 13 20.945312 L 13 20 A 1.0001001 1.0001001 0 0 0 11.988281 18.988281 A 1.0001001 1.0001001 0 0 0 10.998047 20 L 10.998047 20.945312 C 9.2595133 20.753131 7.6753881 20.066574 6.3808594 19.03125 L 7.0488281 18.367188 A 1.0001001 1.0001001 0 0 0 6.3261719 16.648438 A 1.0001001 1.0001001 0 0 0 5.6328125 16.951172 L 4.96875 17.619141 C 3.9335121 16.324648 3.246859 14.740398 3.0546875 13.001953 L 4.0019531 13.001953 A 1.0009765 1.0009765 0 0 0 4.0019531 11 L 3.0546875 11 C 3.2455241 9.2602775 3.9314364 7.6753993 4.9667969 6.3808594 L 5.6328125 7.0507812 A 1.0021986 1.0021986 0 1 0 7.0488281 5.6347656 L 6.3789062 4.96875 C 7.6738239 3.9337698 9.2585581 3.2485903 10.998047 3.0566406 z M 11.988281 6.984375 A 1.0001001 1.0001001 0 0 0 10.998047 8.0039062 L 10.998047 11.998047 A 1.0001001 1.0001001 0 0 0 11.294922 12.705078 L 14.291016 15.710938 A 1.0021986 1.0021986 0 0 0 15.708984 14.292969 L 13 11.583984 L 13 8.0039062 A 1.0001001 1.0001001 0 0 0 11.988281 6.984375 z " transform="matrix(0.26458334,0,0,0.26458334,0,290.64999)"/>
    </g>
</svg>
