<svg xmlns="http://www.w3.org/2000/svg" viewBox="4 4 24 24" x="0px" y="0px">
    <g>
        <path d="M12,4H7A3,3,0,0,0,4,7v5a3,3,0,0,0,3,3h5a3,3,0,0,0,3-3V7A3,3,0,0,0,12,4Zm1,4a5,5,0,0,1-5,5H7a1,1,0,0,1-1-1V7A1,1,0,0,1,7,6h5a1,1,0,0,1,1,1Zm-1,9H7a3,3,0,0,0-3,3v5a3,3,0,0,0,3,3h5a3,3,0,0,0,3-3V20A3,3,0,0,0,12,17Zm1,4a5,5,0,0,1-5,5H7a1,1,0,0,1-1-1V20a1,1,0,0,1,1-1h5a1,1,0,0,1,1,1Zm12-4H20a3,3,0,0,0-3,3v5a3,3,0,0,0,3,3h5a3,3,0,0,0,3-3V20A3,3,0,0,0,25,17Zm1,4a5,5,0,0,1-5,5H20a1,1,0,0,1-1-1V20a1,1,0,0,1,1-1h5a1,1,0,0,1,1,1Zm-3.5-6a5.49,5.49,0,0,0,3.35-9.85A5.45,5.45,0,0,0,22.5,4,5.51,5.51,0,0,0,17,9.5,5.52,5.52,0,0,0,22.5,15Zm0-9a3.42,3.42,0,0,1,1.92.58A3.42,3.42,0,0,1,25,8.5,3.5,3.5,0,0,1,21.5,12a3.42,3.42,0,0,1-1.92-.58A3.42,3.42,0,0,1,19,9.5,3.5,3.5,0,0,1,22.5,6Z"/>
    </g>
</svg>
